<svg xmlns="http://www.w3.org/2000/svg" width="32" height="32" viewBox="0 0 32 32" fill="none"><g clip-path="url(#clip0_1_1451)"><path d="M25.9268 3.45812C25.8544 15.8373 15.8372 25.8545 3.45804 25.9269C7.27921 30.7585 13.5353 32.9664 19.5425 31.6039C25.55 30.2411 30.241 25.5501 31.6038 19.5426C32.9663 13.5354 30.7585 7.27929 25.9268 3.45812Z" fill="#83D8F4"/><path d="M25.9268 3.45812C19.5616 -1.58523 10.4269 -1.05778 4.68453 4.68462C-1.05786 10.427 -1.58531 19.5617 3.45804 25.9269C15.8372 25.8545 25.8544 15.8373 25.9268 3.45812Z" fill="#91DCF5"/><path d="M23.7238 6.62146C22.5046 7.17316 21.8317 6.52233 20.9654 7.17316C19.8951 7.97861 19.4649 10.0642 20.4137 11.5867C21.0853 12.6594 22.2894 12.9285 23.6489 13.2253C25.0249 10.4025 25.7954 7.32347 25.9109 4.18518C25.5098 5.24089 24.7302 6.10937 23.7238 6.62146Z" fill="#00BB77"/><path d="M26.1011 3.59497C26.0513 3.7962 25.9869 3.99338 25.9085 4.18518C25.7932 7.32347 25.0225 10.4025 23.6468 13.2253L23.7238 13.2418C25.6162 13.6555 26.35 12.7784 28.1374 13.2418C28.9347 13.4705 29.6828 13.8446 30.3441 14.3452C31.1105 14.9774 31.677 15.8187 31.9744 16.7666C31.9866 16.5123 31.9992 16.258 31.9992 16.0002C32.0035 11.1875 29.8364 6.62982 26.1011 3.59497Z" fill="#00A468"/><path d="M15.4485 22.6205C16.5408 23.8287 16.8277 25.8701 16.0001 27.0341C15.3272 27.9831 14.406 27.6574 13.7934 28.6892C13.33 29.5504 13.33 30.5867 13.7934 31.4476C13.8785 31.6033 13.9801 31.7491 14.0964 31.8829C14.7281 31.9592 15.3639 31.998 16.0001 31.9993C21.8344 32.0009 27.2064 28.8255 30.0182 23.7134C29.0148 23.0421 27.4472 22.154 25.9306 22.0688C24.3763 21.9169 22.8171 22.3067 21.5171 23.1722C19.8897 24.364 19.5697 26.0522 18.7586 25.9307C18.1848 25.848 17.8705 24.9211 17.6552 24.2756C17.1625 22.8059 17.4298 21.8113 17.4252 20.987C16.7515 21.526 16.0476 22.026 15.3167 22.4842C15.3736 22.54 15.4204 22.5893 15.4485 22.6205Z" fill="#00A468"/><path d="M17.1035 19.8621C16.5354 19.0677 15.4762 18.9187 14.3451 18.7587C11.9729 18.4276 11.0406 19.4483 9.93153 18.7587C9.02776 18.1569 8.58867 17.0597 8.82815 16.0002C9.29175 14.6156 11.3164 15.0846 13.7934 13.2418C14.5934 12.6516 16.4966 11.2338 16.5518 9.37992C16.6071 7.56484 14.8362 7.04628 14.3451 4.96639C14.1317 4.07043 14.5299 2.00993 15.539 0.0178594C9.59993 0.185684 4.24355 3.63187 1.62867 8.96669V8.97181C1.27471 10.9318 1.28414 12.9403 1.65615 14.8968C1.99288 17.1203 2.30159 19.1393 3.86292 20.9655C4.54715 21.7709 5.6007 22.9958 7.17307 23.1722C8.91651 23.3654 11.217 22.2509 11.5866 22.0688C12.0809 21.7442 12.6515 21.5541 13.2417 21.5172C14.0304 21.5675 14.7712 21.9126 15.3167 22.4842C16.0476 22.026 16.7515 21.526 17.4252 20.987C17.4438 20.587 17.3309 20.1918 17.1035 19.8621Z" fill="#00BB77"/><path d="M11.5866 4.4147C11.5866 6.85313 7.17307 12.6901 7.17307 12.6901C7.17307 12.6901 4.42027 9.04886 3.26166 6.31814C2.97639 5.72065 2.80614 5.07495 2.75953 4.4147C2.75953 1.97734 4.73571 0.00115786 7.17307 0.00115786C9.6107 0.00115786 11.5866 1.97734 11.5866 4.4147Z" fill="#FF5023"/><path d="M8.82815 3.863C8.82815 4.77701 8.08708 5.51808 7.17307 5.51808C6.25906 5.51808 5.518 4.77701 5.518 3.863C5.518 2.94899 6.25906 2.20793 7.17307 2.20793C8.08708 2.20793 8.82815 2.94899 8.82815 3.863Z" fill="#F1F2F2"/><path d="M28.1374 19.3104C28.0162 20.3451 27.6797 21.3429 27.1498 22.2399C26.1375 24.1016 24.9926 25.8881 23.7238 27.5858C23.7238 27.5858 22.2783 25.6715 21.037 23.575C20.5796 22.8145 20.1704 22.0257 19.8124 21.2138C19.5272 20.6163 19.3569 19.9706 19.3103 19.3104C19.3103 16.873 21.2865 14.8968 23.7238 14.8968C26.1615 14.8968 28.1374 16.873 28.1374 19.3104Z" fill="#FFCD00"/><path d="M25.3789 18.7587C25.3789 19.6727 24.6378 20.4138 23.7238 20.4138C22.8098 20.4138 22.0688 19.6727 22.0688 18.7587C22.0688 17.8447 22.8098 17.1036 23.7238 17.1036C24.6378 17.1036 25.3789 17.8447 25.3789 18.7587Z" fill="#F1F2F2"/></g><defs><clipPath id="clip0_1_1451"><rect width="32" height="32" fill="white"/></clipPath></defs></svg>