<svg xmlns="http://www.w3.org/2000/svg" width="32" height="32" viewBox="0 0 32 32" fill="none"><path d="M1.6845 4.55469H30.3155V17.3537H1.6845V4.55469Z" fill="#FED843"/><path d="M16.0056 4.55469H30.3155V17.3537H16.0056V4.55469Z" fill="#FABE2C"/><path d="M2.04669 24.4238H3.92169V27.4456H2.04669V24.4238Z" fill="#FABE2C"/><path d="M28.3248 24.4238H30.1998V27.4456H28.3248V24.4238Z" fill="#FD9025"/><path d="M26.4569 13.1041C26.2994 13.1041 5.734 13.1041 5.60187 13.1041C3.50562 13.1044 1.80025 15.0108 1.80025 17.3537H30.2586C30.2586 15.0108 28.5531 13.1044 26.4569 13.1041Z" fill="#E33A53"/><path d="M5.3635 16.9439H14.7844C14.514 14.8548 14.5888 12.8012 15.0138 10.6761L15.2896 9.29712L13.9107 9.57294C11.365 10.0821 8.7835 10.0821 6.23787 9.57294L4.85894 9.29712L5.13475 10.6761C5.55056 12.7556 5.62688 14.8625 5.3635 16.9439Z" fill="#FD8F90"/><path d="M16.0056 17.3537L30.2586 17.3537C30.2586 15.0108 28.5531 13.1044 26.4569 13.1041C26.3781 13.1041 21.1879 13.104 16.0056 13.104V17.3537Z" fill="#CA0813"/><path d="M17.1318 16.9439H26.5527C26.2822 14.8548 26.3571 12.8012 26.7821 10.6761L27.0579 9.29712L25.6789 9.57294C23.1333 10.0821 20.5517 10.0821 18.0061 9.57294L16.6272 9.29712L16.903 10.6761C17.3188 12.7556 17.3951 14.8625 17.1318 16.9439Z" fill="#FD657D"/><path d="M32 23.2249V18.9225C32 17.5406 30.8757 16.4162 29.4937 16.4162H2.50625C1.12431 16.4162 0 17.5406 0 18.9225V23.2249H32Z" fill="#FD657D"/><path d="M29.4937 16.4162L16.0056 16.4162V23.2249H32V18.9225C32 17.5406 30.8757 16.4162 29.4937 16.4162Z" fill="#E33A53"/><path d="M0 21.7249H32V24.7774H0V21.7249Z" fill="#FED843"/><path d="M16.0056 21.7249H32V24.7774H16.0056V21.7249Z" fill="#FABE2C"/></svg>