<svg xmlns="http://www.w3.org/2000/svg" width="32" height="32" viewBox="0 0 32 32" fill="none"><g clip-path="url(#clip0_1_1463)"><path d="M28.552 2.00831H3.44788C1.54669 2.00831 0 3.55506 0 5.45625V8.97081C0 9.48856 0.41975 9.90831 0.9375 9.90831H31.0625C31.5803 9.90831 32 9.48856 32 8.97081V5.45625C32 3.55506 30.4533 2.00831 28.552 2.00831Z" fill="#FF5B5B"/><path d="M28.552 2.00831H16V9.90831H31.0625C31.5803 9.90831 32 9.48856 32 8.97081V5.45625C32 3.55506 30.4533 2.00831 28.552 2.00831Z" fill="#FF0059"/><path d="M12.9874 5.89169C12.4697 5.89169 12.0499 5.47194 12.0499 4.95419V0.9375C12.0499 0.41975 12.4697 0 12.9874 0C13.5052 0 13.9249 0.41975 13.9249 0.9375V4.95419C13.9249 5.47194 13.5052 5.89169 12.9874 5.89169Z" fill="#C5E1E6"/><path d="M6.9625 5.89169C6.44475 5.89169 6.025 5.47194 6.025 4.95419V0.9375C6.025 0.41975 6.44475 0 6.9625 0C7.48025 0 7.9 0.41975 7.9 0.9375V4.95419C7.9 5.47194 7.48031 5.89169 6.9625 5.89169Z" fill="#C5E1E6"/><path d="M25.0375 5.89169C24.5198 5.89169 24.1 5.47194 24.1 4.95419V0.9375C24.1 0.41975 24.5198 0 25.0375 0C25.5553 0 25.975 0.41975 25.975 0.9375V4.95419C25.975 5.47194 25.5553 5.89169 25.0375 5.89169Z" fill="#8DB9C4"/><path d="M19.0124 5.89169C18.4947 5.89169 18.0749 5.47194 18.0749 4.95419V0.9375C18.0749 0.41975 18.4947 0 19.0124 0C19.5302 0 19.9499 0.41975 19.9499 0.9375V4.95419C19.9499 5.47194 19.5302 5.89169 19.0124 5.89169Z" fill="#8DB9C4"/><path d="M0 8.97081V28.5521C0 30.4533 1.54669 32 3.44788 32H28.552C30.4533 32 32 30.4533 32 28.5521V8.97081H0Z" fill="#E7F0EF"/><path d="M16 32H28.552C30.4533 32 32 30.4533 32 28.5521V8.97081H16V32Z" fill="#C5E1E6"/><path d="M9.47287 18.9458H5.45619C4.93844 18.9458 4.51869 18.5261 4.51869 18.0083V13.9917C4.51869 13.4739 4.93844 13.0542 5.45619 13.0542H9.47294C9.99069 13.0542 10.4104 13.4739 10.4104 13.9917V18.0083C10.4104 18.5261 9.99069 18.9458 9.47287 18.9458ZM6.39369 17.0708H8.53544V14.9292H6.39369V17.0708Z" fill="#265C76"/><path d="M26.5437 18.9458H22.5271C22.0093 18.9458 21.5896 18.5261 21.5896 18.0083V13.9917C21.5896 13.4739 22.0093 13.0542 22.5271 13.0542H26.5437C27.0614 13.0542 27.4812 13.4739 27.4812 13.9917V18.0083C27.4812 18.5261 27.0614 18.9458 26.5437 18.9458ZM23.4646 17.0708H25.6063V14.9292H23.4646V17.0708Z" fill="#1D4659"/><path d="M9.47287 26.9791H5.45619C4.93844 26.9791 4.51869 26.5594 4.51869 26.0416V22.025C4.51869 21.5072 4.93844 21.0875 5.45619 21.0875H9.47294C9.99069 21.0875 10.4104 21.5072 10.4104 22.025V26.0416C10.4104 26.5594 9.99069 26.9791 9.47287 26.9791ZM6.39369 25.1041H8.53544V22.9625H6.39369V25.1041Z" fill="#265C76"/><path d="M26.5437 26.9791H22.5271C22.0093 26.9791 21.5896 26.5594 21.5896 26.0416V22.025C21.5896 21.5072 22.0093 21.0875 22.5271 21.0875H26.5437C27.0614 21.0875 27.4812 21.5072 27.4812 22.025V26.0416C27.4812 26.5594 27.0614 26.9791 26.5437 26.9791ZM23.4646 25.1041H25.6063V22.9625H23.4646V25.1041Z" fill="#1D4659"/><path d="M18.0083 26.9791H13.9916C13.4738 26.9791 13.0541 26.5594 13.0541 26.0416V22.025C13.0541 21.5072 13.4738 21.0875 13.9916 21.0875H18.0083C18.5261 21.0875 18.9458 21.5072 18.9458 22.025V26.0416C18.9458 26.5594 18.5261 26.9791 18.0083 26.9791ZM14.9291 25.1041H17.0708V22.9625H14.9291V25.1041Z" fill="#265C76"/><path d="M15.2901 18.3577C15.0414 18.3577 14.8029 18.2589 14.6272 18.0831L13.207 16.6629C12.8409 16.2968 12.8409 15.7032 13.207 15.3371C13.5731 14.971 14.1667 14.971 14.5328 15.3371L15.2901 16.0942L17.4673 13.917C17.8333 13.5509 18.4269 13.5508 18.7931 13.917C19.1592 14.2831 19.1592 14.8766 18.7931 15.2428L15.953 18.083C15.7772 18.2589 15.5387 18.3577 15.2901 18.3577Z" fill="#54E360"/><path d="M18.0083 21.0875H16V22.9625H17.0708V25.1041H16V26.9791H18.0083C18.5261 26.9791 18.9458 26.5594 18.9458 26.0416V22.025C18.9458 21.5072 18.5261 21.0875 18.0083 21.0875Z" fill="#1D4659"/><path d="M18.7931 13.917C18.4269 13.5508 17.8333 13.5509 17.4673 13.917L16 15.3843V18.036L18.7931 15.2428C19.1592 14.8766 19.1592 14.2831 18.7931 13.917Z" fill="#00B44B"/></g><defs><clipPath id="clip0_1_1463"><rect width="32" height="32" fill="white"/></clipPath></defs></svg>