<svg xmlns="http://www.w3.org/2000/svg" width="32" height="32" viewBox="0 0 32 32" fill="none"><g clip-path="url(#clip0_1_1458)"><path d="M6.5 9.5L5.045 12.41L5.015 12.395C4.17 12.18 2.5 11.62 2.5 10.5C2.5 9 0.999999 7.5 0.999999 7.5C2 6.93 3.5 7.5 4 8.5C4.5 9.5 6.5 9.5 6.5 9.5Z" fill="#FF9700"/><path d="M3.145 16.465C3.1075 16.465 3.0695 16.4565 3.033 16.4385C2.9095 16.377 2.8595 16.2265 2.921 16.103L6.276 9.388C6.338 9.265 6.4885 9.2145 6.6115 9.276C6.735 9.3375 6.785 9.488 6.7235 9.6115L3.3685 16.3265C3.3245 16.414 3.2365 16.465 3.145 16.465Z" fill="#6871D8"/><path d="M4.09 19.705L3.75 21.673L1.81 20.845L1.5 20L0.824999 18.305C0.614999 17.795 0.639999 17.215 0.889999 16.725C1.15 16.205 1.665 15.9 2.215 15.9C2.4 15.9 2.59 15.935 2.77 16.01C2.905 16.065 3.03 16.13 3.145 16.215C3.35 16.35 3.525 16.525 3.665 16.73C3.88 17.045 4 17.425 4 17.825V19.3C4 19.43 4.025 19.565 4.08 19.685L4.09 19.705Z" fill="#FFD5C2"/><path d="M20.325 8.5H20.175C19.805 8.5 19.5 8.805 19.5 9.175V6.98C16.44 7.415 14.5 5 14.5 5C14.065 6.305 12.5 6.98 12.5 6.98V9.175C12.5 8.805 12.195 8.5 11.825 8.5H11.675C11.305 8.5 11 8.805 11 9.175V10.825C11 11.195 11.305 11.5 11.675 11.5H11.825C12.195 11.5 12.5 11.195 12.5 10.825V10.52C12.5 11.48 12.895 12.35 13.53 12.98C13.82 13.27 14.165 13.51 14.55 13.68C14.59 14.77 14.485 16.81 13.185 16.985L15.71 19.79C15.885 19.915 16.115 19.915 16.29 19.79L18.815 16.985C17.515 16.81 17.41 14.77 17.45 13.68C17.835 13.51 18.18 13.27 18.47 12.98C19.105 12.35 19.5 11.48 19.5 10.52V10.825C19.5 11.195 19.805 11.5 20.175 11.5H20.325C20.695 11.5 21 11.195 21 10.825V9.175C21 8.805 20.695 8.5 20.325 8.5Z" fill="#FFD5C2"/><path d="M31.315 17.585C31.315 17.83 31.27 18.075 31.175 18.305L30.5 20L30.19 20.845L28.8345 21.673L27.91 19.705L27.92 19.685C27.975 19.565 28 19.43 28 19.3V17.825C28 17.73 28.005 17.635 28.02 17.54C28.12 16.855 28.575 16.27 29.23 16.01C29.245 16.005 29.265 15.995 29.28 15.99C29.445 15.93 29.615 15.9 29.785 15.9C30.335 15.9 30.85 16.205 31.11 16.725C31.245 16.995 31.315 17.29 31.315 17.585Z" fill="#FFD5C2"/><path d="M27.125 10.96L29.28 15.99C29.265 15.995 29.245 16.005 29.23 16.01C28.575 16.27 28.12 16.855 28.02 17.54L22.895 15.15C22.215 14.835 22.06 13.94 22.585 13.415L22.94 13.06L25.06 10.94L25.375 10.625C25.915 10.085 26.825 10.26 27.125 10.96Z" fill="#6871D8"/><path d="M25.06 10.94L22.94 13.06C22.67 12.79 22.5 12.415 22.5 12C22.5 11.17 23.17 10.5 24 10.5C24.415 10.5 24.79 10.67 25.06 10.94Z" fill="#FF9700"/><path d="M22 2.5C22 1.395 21.105 0.5 20 0.5C18.97 0.5 18.12 1.28 18.01 2.285C17.525 2.1 17 2 16.455 2H15.545C13.045 2 11 4.1 11 6.66V9.675C11 9.305 11.305 9 11.675 9H11.825C12.195 9 12.5 9.305 12.5 9.675V7.48C12.5 7.48 14.065 6.805 14.5 5.5C14.5 5.5 16.44 7.915 19.5 7.48V9.675C19.5 9.305 19.805 9 20.175 9H20.325C20.695 9 21 9.305 21 9.675V6.66C21 5.86 20.8 5.105 20.45 4.445C21.34 4.245 22 3.45 22 2.5Z" fill="#212647"/><path d="M27.91 19.705L25.245 25.935C25.18 26.08 24.965 26.045 24.95 25.885L24.5 20.38C24.5 18.515 22.985 17 21.12 17H19C18.94 17 18.88 16.995 18.82 16.985H18.815L16.29 18.79C16.115 18.915 15.885 18.915 15.71 18.79L13.185 16.985H13.18C13.12 16.995 13.06 17 13 17H10.88C9.015 17 7.5 18.515 7.5 20.38L7.05 25.885C7.035 26.045 6.82 26.08 6.755 25.935L4.09 19.705L1.81 20.845L5.025 29.695C5.17 30.1 5.42 30.445 5.74 30.71C6.06 30.975 6.45 31.16 6.87 31.23C7.795 31.385 8.69 30.815 8.945 29.905L11 22.5L11.5 31.5H20.5L21 22.5L23.055 29.905C23.28 30.715 24.015 31.255 24.825 31.255C24.925 31.255 25.03 31.245 25.13 31.23C25.975 31.085 26.68 30.5 26.975 29.695L30.19 20.845L27.91 19.705Z" fill="#FF9700"/><path d="M15.0965 9.225C15.0485 9.225 15.0005 9.2115 14.958 9.183C14.432 8.8325 13.902 9.1695 13.879 9.184C13.764 9.2585 13.6095 9.2265 13.534 9.112C13.4585 8.997 13.489 8.843 13.6035 8.767C13.637 8.745 14.429 8.229 15.236 8.767C15.3505 8.8435 15.382 8.999 15.3055 9.1135C15.2565 9.186 15.177 9.225 15.0965 9.225Z" fill="#212647"/><path d="M16.033 12.387C15.453 12.387 15.017 12.186 14.9895 12.173C14.865 12.114 14.812 11.966 14.8705 11.841C14.929 11.7155 15.078 11.664 15.2025 11.7205C15.211 11.724 16.0155 12.09 16.7965 11.721C16.922 11.6635 17.0705 11.715 17.1295 11.84C17.1885 11.965 17.135 12.114 17.0105 12.173C16.6705 12.334 16.3325 12.387 16.033 12.387Z" fill="#FCAD95"/><path d="M18.2585 9.225C18.2105 9.225 18.1625 9.2115 18.12 9.183C17.587 8.8275 17.047 9.1795 17.0425 9.183C16.928 9.2585 16.7725 9.2285 16.696 9.1135C16.6195 8.9985 16.6505 8.8435 16.7655 8.767C16.7985 8.745 17.591 8.2295 18.398 8.767C18.5125 8.8435 18.544 8.999 18.4675 9.1135C18.418 9.186 18.339 9.225 18.2585 9.225Z" fill="#212647"/><path d="M16 24.75C15.903 24.75 15.8145 24.694 15.7735 24.606L12.2735 17.106C12.215 16.9805 12.269 16.832 12.394 16.7735C12.5195 16.715 12.668 16.7685 12.7265 16.894L16 23.9085L19.2735 16.894C19.332 16.7685 19.4805 16.715 19.606 16.7735C19.731 16.832 19.785 16.9805 19.7265 17.106L16.2265 24.606C16.1855 24.694 16.097 24.75 16 24.75Z" fill="#212647"/><path d="M18 25V26.5C18 26.776 17.776 27 17.5 27H14.5C14.224 27 14 26.776 14 26.5V25C14 24.724 14.224 24.5 14.5 24.5H17.5C17.776 24.5 18 24.724 18 25Z" fill="#6871D8"/><path d="M16 14C15.485 14 14.99 13.89 14.55 13.68V13.75C14.995 13.95 15.485 14.06 16 14.06C16.515 14.06 17.005 13.95 17.45 13.75L17.45 13.68C17.01 13.89 16.515 14 16 14Z" fill="#FCAD95"/></g><defs><clipPath id="clip0_1_1458"><rect width="32" height="32" fill="white"/></clipPath></defs></svg>