<svg xmlns="http://www.w3.org/2000/svg" viewBox="0 0 80 80"><g fill="none" class="nc-icon-wrapper"><path d="M38.282 1.719c-13.198 0-24.835 6.678-31.717 16.84l9.179 52.385a38.106 38.106 0 0 0 22.538 7.338c15.156 0 28.254-8.809 34.456-21.585v-4.616h1.878A38.243 38.243 0 0 0 76.563 40c0-21.143-17.14-38.282-38.281-38.282z" fill="#73C3F9"/><path d="M79.95 43.883L71.478 9.878a1.68 1.68 0 0 0-1.663-1.269 5.794 5.794 0 0 1-5.249-3.154 1.68 1.68 0 0 0-1.9-.874L44.343 9.146l3.095 12.424h18.83c.685 0 1.272.47 1.428 1.143a6.027 6.027 0 0 0 4.488 4.489 1.463 1.463 0 0 1 1.144 1.427v24.397l1.324-.33a1.68 1.68 0 0 0 1.269-1.664 5.794 5.794 0 0 1 3.154-5.248 1.68 1.68 0 0 0 .874-1.901z" fill="#FF4155"/><path d="M4.723 21.57h43.156L44.76 9.043 6.564 18.558a38.322 38.322 0 0 0-1.842 3.012z" fill="#E80054"/><path d="M27.973 21.358c-2.552-1.415-1.233-3.907-1.233-3.907-2.561-1.286-1.34-3.585-1.34-3.585L6.564 18.558a38.322 38.322 0 0 0-1.842 3.012h23.023c.13-.137.227-.212.227-.212z" fill="#CC0053"/><path d="M47.44 21.57H66l-2.46-9.876a3.31 3.31 0 0 0-4.013-2.412l-14.264 3.554 2.176 8.734z" fill="#FCF2C8"/><path d="M47.88 21.57l-2.202-8.837-35.469 8.837h37.67z" fill="#FEE884"/><path d="M27.973 21.358c-2.552-1.415-1.233-3.907-1.233-3.907L10.21 21.57h17.536c.13-.137.227-.212.227-.212z" fill="#FFDD40"/><path d="M52.196 19.413a1.1 1.1 0 0 1-.265-2.168l7.335-1.827a1.1 1.1 0 1 1 .532 2.135l-7.335 1.828c-.09.022-.179.032-.267.032z" fill="#FFB332"/><path d="M45.002 11.126a1.1 1.1 0 0 1-1.066-.835l-.245-.983a1.1 1.1 0 1 1 2.135-.532l.245.984a1.1 1.1 0 0 1-1.069 1.366z" fill="#FFB332"/><path d="M46.307 16.363a1.1 1.1 0 0 1-1.067-.835l-.245-.983a1.1 1.1 0 1 1 2.135-.532l.245.984a1.1 1.1 0 0 1-1.068 1.366z" fill="#FFB332"/><path d="M47.612 21.6a1.1 1.1 0 0 1-1.067-.835l-.245-.983a1.1 1.1 0 1 1 2.135-.532l.245.983a1.1 1.1 0 0 1-1.068 1.367z" fill="#FF9433"/><path d="M72.233 26.995a5.794 5.794 0 0 1-4.33-4.33 1.68 1.68 0 0 0-1.634-1.307H47.521v49.586H66.27a1.68 1.68 0 0 0 1.634-1.307 5.794 5.794 0 0 1 4.33-4.33 1.679 1.679 0 0 0 1.307-1.634V28.63a1.68 1.68 0 0 0-1.308-1.634z" fill="#FF7186"/><path d="M72.233 26.995a5.794 5.794 0 0 1-4.33-4.33 1.68 1.68 0 0 0-1.634-1.307h-4.818s-2.132 1.671 0 3.803l3.947 19.255s3.633 4.51 8.142 0V28.63a1.68 1.68 0 0 0-1.308-1.634z" fill="#F9A0B1"/><path d="M4.841 21.358a38.166 38.166 0 0 0-1.857 3.807l8.3 41.972a38.506 38.506 0 0 0 4.46 3.807h32.07V21.358H4.842z" fill="#FF4155"/><path d="M26.879 67.14c-1.875-1.061-1.797-3.234-1.797-3.234v-9.765c0-2.891 1.486-3.925 1.486-3.925l-2.13-4.231 2.987-4.484c-2.498-3.486.548-5.582.548-5.582v-5.162c-2.805-2.805 0-5.596 0-5.596-2.146-2.146 0-3.803 0-3.803H4.84a38.166 38.166 0 0 0-1.857 3.807l8.3 41.972a38.506 38.506 0 0 0 4.46 3.807h11.135c-2.106-2.106 0-3.803 0-3.803z" fill="#E80054"/><path d="M62.087 25.161H47.521v41.98h14.566a3.31 3.31 0 0 0 3.31-3.31V28.471a3.31 3.31 0 0 0-3.31-3.31z" fill="#FCF2C8"/><path d="M0 40c0 10.608 4.315 20.208 11.286 27.14h36.529V25.162H2.983A38.162 38.162 0 0 0 0 40.001z" fill="#FEE884"/><path d="M25.082 63.906v-9.765c0-2.891 1.486-3.925 1.486-3.925l-2.13-4.231 2.987-4.484c-2.498-3.486.548-5.582.548-5.582v-5.162c-2.805-2.805 0-5.596 0-5.596H2.983A38.162 38.162 0 0 0 0 40.001c0 10.607 4.315 20.207 11.286 27.14h15.593c-1.875-1.062-1.797-3.235-1.797-3.235z" fill="#FFDD40"/><path d="M47.815 23.472a1.1 1.1 0 0 1-1.1-1.1v-1.014a1.1 1.1 0 0 1 2.2 0v1.013a1.1 1.1 0 0 1-1.1 1.1z" fill="#FFB332"/><path d="M47.815 28.869a1.1 1.1 0 0 1-1.1-1.1v-1.014a1.1 1.1 0 0 1 2.2 0v1.014a1.1 1.1 0 0 1-1.1 1.1z" fill="#FFB332"/><path d="M47.815 34.266a1.1 1.1 0 0 1-1.1-1.1v-1.014a1.1 1.1 0 0 1 2.2 0v1.014a1.1 1.1 0 0 1-1.1 1.1z" fill="#FFB332"/><path d="M47.815 39.663a1.1 1.1 0 0 1-1.1-1.1v-1.014a1.1 1.1 0 0 1 2.2 0v1.013a1.1 1.1 0 0 1-1.1 1.1z" fill="#FFB332"/><path d="M47.815 45.06a1.1 1.1 0 0 1-1.1-1.1v-1.014a1.1 1.1 0 0 1 2.2 0v1.013a1.1 1.1 0 0 1-1.1 1.1z" fill="#FFB332"/><path d="M47.815 50.456a1.1 1.1 0 0 1-1.1-1.1v-1.013a1.1 1.1 0 0 1 2.2 0v1.013a1.1 1.1 0 0 1-1.1 1.1z" fill="#FFB332"/><path d="M47.815 55.853a1.1 1.1 0 0 1-1.1-1.1V53.74a1.1 1.1 0 0 1 2.2 0v1.013a1.1 1.1 0 0 1-1.1 1.1z" fill="#FFB332"/><path d="M47.815 61.25a1.1 1.1 0 0 1-1.1-1.1v-1.013a1.1 1.1 0 0 1 2.2 0v1.013a1.1 1.1 0 0 1-1.1 1.1z" fill="#FFB332"/><path d="M47.815 66.647a1.1 1.1 0 0 1-1.1-1.1v-1.013a1.1 1.1 0 0 1 2.2 0v1.013a1.1 1.1 0 0 1-1.1 1.1z" fill="#FFB332"/><path d="M47.815 72.044a1.1 1.1 0 0 1-1.1-1.1v-1.013a1.1 1.1 0 0 1 2.2 0v1.013a1.1 1.1 0 0 1-1.1 1.1z" fill="#FFB332"/><path d="M60.35 33.252h-7.559a1.1 1.1 0 1 1 0-2.2h7.56a1.1 1.1 0 1 1 0 2.2z" fill="#FFB332"/><path d="M60.35 37.02h-7.559a1.1 1.1 0 1 1 0-2.201h7.56a1.1 1.1 0 1 1 0 2.2z" fill="#FFDD40"/><path d="M60.35 40.786h-7.559a1.1 1.1 0 1 1 0-2.2h7.56a1.1 1.1 0 1 1 0 2.2z" fill="#FFDD40"/><path d="M60.35 44.553h-7.559a1.1 1.1 0 1 1 0-2.2h7.56a1.1 1.1 0 1 1 0 2.2z" fill="#FFDD40"/><path d="M60.35 56.977h-2.394a1.1 1.1 0 1 1 0-2.2h2.395a1.1 1.1 0 1 1 0 2.2z" fill="#FF9433"/><path d="M60.35 60.744h-7.559a1.1 1.1 0 1 1 0-2.2h7.56a1.1 1.1 0 1 1 0 2.2z" fill="#FFB332"/><path d="M37.817 56.977h-2.395a1.1 1.1 0 1 1 0-2.2h2.395a1.1 1.1 0 1 1 0 2.2z" fill="#FF9433"/><path d="M37.817 60.744h-7.56a1.1 1.1 0 1 1 0-2.2h7.56a1.1 1.1 0 1 1 0 2.2z" fill="#FFB332"/><path d="M10.68 50.524a1.1 1.1 0 0 1-1.1-1.1v-6.966a1.1 1.1 0 0 1 2.2 0v6.966a1.1 1.1 0 0 1-1.1 1.1z" fill="#4B6BB2"/><path d="M33.378 50.492H30.47a1.1 1.1 0 0 1-1.1-1.1V42.49a1.1 1.1 0 0 1 1.1-1.1h2.908a1.1 1.1 0 1 1 0 2.2H31.57v4.702h1.808a1.1 1.1 0 1 1 0 2.2z" fill="#4B6BB2"/><path d="M33.164 47.04H30.47a1.1 1.1 0 1 1 0-2.2h2.694a1.1 1.1 0 1 1 0 2.2z" fill="#6289CC"/><path d="M17.777 50.524a4.588 4.588 0 0 1-4.583-4.583 4.588 4.588 0 0 1 4.583-4.583c.919 0 1.805.27 2.564.783a1.1 1.1 0 0 1-1.232 1.824 2.385 2.385 0 0 0-3.714 1.976 2.386 2.386 0 0 0 2.382 2.383c.476 0 .873-.139 1.18-.413.06-.053.118-.113.172-.177a1.1 1.1 0 0 1 1.685 1.414 3.91 3.91 0 0 1-.393.406c-.713.634-1.627.97-2.643.97z" fill="#4B6BB2"/><path d="M5.293 50.524a1.1 1.1 0 0 1-1.1-1.1V42.68a1.1 1.1 0 0 1 2.2 0v6.743a1.1 1.1 0 0 1-1.1 1.1z" fill="#4B6BB2"/><path d="M38.55 50.524a1.1 1.1 0 0 1-1.1-1.1V42.68a1.1 1.1 0 0 1 2.2 0v6.743a1.1 1.1 0 0 1-1.1 1.1z" fill="#4B6BB2"/><path d="M38.07 30.757H5.788a2.58 2.58 0 0 0 0 5.162h32.284a2.581 2.581 0 0 0 0-5.162z" fill="#FCF5E0"/><path d="M25.621 33.338a2.581 2.581 0 0 1 2.581-2.58H5.787a2.58 2.58 0 0 0 0 5.161h22.415a2.58 2.58 0 0 1-2.58-2.58z" fill="#FEE884"/><path d="M23.337 50.524a1.1 1.1 0 0 1-1.1-1.1v-6.966a1.1 1.1 0 0 1 2.2 0v6.966a1.1 1.1 0 0 1-1.1 1.1z" fill="#4B6BB2"/><path d="M7.224 43.558H3.377a1.1 1.1 0 1 1 0-2.2h3.847a1.1 1.1 0 1 1 0 2.2z" fill="#6289CC"/><path d="M40.48 43.558h-3.846a1.1 1.1 0 1 1 0-2.2h3.847a1.1 1.1 0 1 1 0 2.2z" fill="#6289CC"/><path d="M27.331 50.524c-.274 0-.55-.103-.763-.309l-3.772-3.638a1.1 1.1 0 0 1 .02-1.602l3.524-3.239a1.1 1.1 0 0 1 1.489 1.62l-2.664 2.449 2.93 2.827a1.1 1.1 0 0 1-.764 1.892z" fill="#6289CC"/></g></svg>