<svg xmlns="http://www.w3.org/2000/svg" viewBox="0 0 80 80"><g fill="none" class="nc-icon-wrapper"><path d="M68.125 67.685c6.303-6.823 10.156-15.944 10.156-25.966C78.281 20.577 61.142 3.437 40 3.437S1.719 20.578 1.719 41.72c0 10.022 3.853 19.143 10.156 25.966h56.25z" fill="#52CEAA"/><path d="M40 71.25c17.259 0 31.25-13.991 31.25-31.25S57.259 8.75 40 8.75 8.75 22.741 8.75 40 22.741 71.25 40 71.25z" fill="#42BA9B"/><path d="M15 37.5h50c1.726 0 3.125-1.4 3.125-3.125V3.125C68.125 1.399 66.725 0 65 0H15a3.125 3.125 0 0 0-3.125 3.125v31.25c0 1.726 1.4 3.125 3.125 3.125z" fill="#6C5475"/><path d="M31.406 34.375V3.125c0-1.726 1.4-3.125 3.125-3.125H15a3.125 3.125 0 0 0-3.125 3.125v31.25c0 1.726 1.4 3.125 3.125 3.125h19.531a3.125 3.125 0 0 1-3.125-3.125z" fill="#543E5B"/><path d="M68.125 48.75v-3.125c0-1.726-1.4-3.125-3.125-3.125H15a3.125 3.125 0 0 0-3.125 3.125v3.125l2.197 4.688-2.197 4.687v9.56C18.869 75.257 28.88 80 40 80c5.264 0 10.28-1.064 14.844-2.987l10.036-6.207a38.526 38.526 0 0 0 3.245-3.12v-9.561l-2.198-4.688 2.198-4.687z" fill="#DEEEFF"/><path d="M11.875 45.625v3.125l2.197 4.688-2.197 4.687v9.56a38.24 38.24 0 0 0 19.637 11.37 3.113 3.113 0 0 1-.887-2.18v-31.25c0-1.726 1.4-3.125 3.125-3.125H15a3.125 3.125 0 0 0-3.125 3.125z" fill="#D3DCFB"/><path d="M16.172 23.438c.647 0 1.172.524 1.172 1.171v3.907a1.172 1.172 0 0 1-2.344 0v-3.907c0-.647.525-1.172 1.172-1.172z" fill="#876D93"/><path d="M20.078 23.438c.647 0 1.172.524 1.172 1.171v3.907a1.172 1.172 0 0 1-2.344 0v-3.907c0-.647.525-1.172 1.172-1.172z" fill="#876D93"/><path d="M23.984 23.438c.648 0 1.172.524 1.172 1.171v3.907a1.172 1.172 0 1 1-2.343 0v-3.907c0-.647.524-1.172 1.171-1.172z" fill="#876D93"/><path d="M27.89 23.438c.648 0 1.172.524 1.172 1.171v3.907a1.172 1.172 0 0 1-2.343 0v-3.907c0-.647.524-1.172 1.172-1.172z" fill="#876D93"/><path d="M34.922 23.438c.647 0 1.172.524 1.172 1.171v3.907a1.172 1.172 0 0 1-2.344 0v-3.907c0-.647.525-1.172 1.172-1.172z" fill="#A98BBC"/><path d="M38.828 23.438c.647 0 1.172.524 1.172 1.171v3.907a1.172 1.172 0 0 1-2.344 0v-3.907c0-.647.525-1.172 1.172-1.172z" fill="#A98BBC"/><path d="M42.734 23.438c.648 0 1.172.524 1.172 1.171v3.907a1.172 1.172 0 1 1-2.343 0v-3.907c0-.647.524-1.172 1.171-1.172z" fill="#A98BBC"/><path d="M46.64 23.438c.648 0 1.172.524 1.172 1.171v3.907a1.172 1.172 0 0 1-2.343 0v-3.907c0-.647.524-1.172 1.172-1.172z" fill="#A98BBC"/><path d="M53.672 23.438c.647 0 1.172.524 1.172 1.171v3.907a1.172 1.172 0 0 1-2.344 0v-3.907c0-.647.525-1.172 1.172-1.172z" fill="#A98BBC"/><path d="M57.578 23.438c.647 0 1.172.524 1.172 1.171v3.907a1.172 1.172 0 0 1-2.344 0v-3.907c0-.647.525-1.172 1.172-1.172z" fill="#A98BBC"/><path d="M40 33.203c0 .647-.525 1.172-1.172 1.172H16.172a1.172 1.172 0 0 1 0-2.344h22.656c.647 0 1.172.525 1.172 1.172z" fill="#A98BBC"/><path d="M19.688 33.203c0-.647.524-1.172 1.171-1.172h-4.687a1.172 1.172 0 0 0 0 2.344h4.687a1.172 1.172 0 0 1-1.172-1.172z" fill="#876D93"/><path d="M40 62.422c0 .647-.525 1.172-1.172 1.172H16.172a1.172 1.172 0 0 1 0-2.344h22.656c.647 0 1.172.525 1.172 1.172z" fill="#BEC8F7"/><path d="M19.688 62.422c0-.647.524-1.172 1.171-1.172h-4.687a1.172 1.172 0 0 0 0 2.344h4.687a1.172 1.172 0 0 1-1.172-1.172z" fill="#A8B7EF"/><path d="M32.188 67.89c0 .648-.525 1.172-1.172 1.172H16.172a1.172 1.172 0 0 1 0-2.343h14.844c.647 0 1.172.524 1.172 1.172z" fill="#BEC8F7"/><path d="M19.688 67.89c0-.647.524-1.171 1.171-1.171h-4.687a1.172 1.172 0 1 0 0 2.344h4.687a1.172 1.172 0 0 1-1.172-1.172z" fill="#A8B7EF"/><path d="M65 4.297v3.906c0 .647-.525 1.172-1.172 1.172h-7.812a1.172 1.172 0 0 1-1.172-1.172V4.297c0-.647.524-1.172 1.172-1.172h7.812c.647 0 1.172.525 1.172 1.172z" fill="#DEEEFF"/><path d="M59.531 8.203V4.297c0-.647.525-1.172 1.172-1.172h-4.687c-.648 0-1.172.525-1.172 1.172v3.906c0 .647.524 1.172 1.172 1.172h4.687a1.172 1.172 0 0 1-1.172-1.172z" fill="#D3DCFB"/><path d="M65 12.11c0 .647-.525 1.171-1.172 1.171h-7.812a1.172 1.172 0 1 1 0-2.344h7.812c.647 0 1.172.525 1.172 1.172z" fill="#DEEEFF"/><path d="M59.531 12.11c0-.648.525-1.172 1.172-1.172h-4.687a1.172 1.172 0 0 0 0 2.343h4.687a1.172 1.172 0 0 1-1.172-1.172z" fill="#D3DCFB"/><path d="M29.063 17.578v2.344c0 .647-.525 1.172-1.172 1.172H16.17A1.172 1.172 0 0 1 15 19.922v-2.344c0-.647.525-1.172 1.172-1.172H27.89c.647 0 1.172.525 1.172 1.172z" fill="#A98BBC"/><path d="M19.688 19.922v-2.344c0-.647.524-1.172 1.171-1.172h-4.687c-.647 0-1.172.525-1.172 1.172v2.344c0 .647.525 1.172 1.172 1.172h4.687a1.172 1.172 0 0 1-1.172-1.172z" fill="#876D93"/><path d="M11.875 58.125V48.75h56.25v9.375h-56.25z" fill="#6C5475"/><path d="M11.875 48.75h18.75v9.375h-18.75V48.75z" fill="#543E5B"/><path d="M16.563 3.125h7.03v10.156h-7.03V3.125z" fill="#FFDD40"/><path d="M25.156 11.719V4.688a1.562 1.562 0 1 0-3.125 0v7.03a1.562 1.562 0 0 0 3.125 0z" fill="#FFC839"/><path d="M18.125 11.719V4.688a1.562 1.562 0 1 0-3.125 0v7.03a1.562 1.562 0 0 0 3.125 0z" fill="#FFC839"/><path d="M61.876 73.13l1.562-3.286h-7.032l1.562 5.679a38.284 38.284 0 0 0 3.908-2.393z" fill="#FFDD40"/><path d="M64.88 70.806a1.563 1.563 0 0 0-3.005.6v1.726a38.376 38.376 0 0 0 3.005-2.326z" fill="#FFC839"/><path d="M57.969 75.525v-4.119a1.562 1.562 0 0 0-3.125 0v5.607c1.067-.45 2.11-.947 3.125-1.488z" fill="#FFC839"/></g></svg>