<svg xmlns="http://www.w3.org/2000/svg" viewBox="0 0 80 80"><g fill="none" class="nc-icon-wrapper"><g clip-path="url(#clip0_596_9439)"><path d="M80 40c0 22.092-17.908 40-40 40-5.04 0-9.861-.932-14.304-2.634a40.053 40.053 0 0 1-15.432-10.612A39.846 39.846 0 0 1 0 40C0 17.908 17.908 0 40 0s40 17.908 40 40z" fill="#71CC8A"/><path d="M37.179 70.977c0 3.082-4.884 5.668-11.483 6.39a40.053 40.053 0 0 1-15.432-10.613c2.792-1.448 6.995-2.369 11.692-2.369 8.407 0 15.223 2.95 15.223 6.592z" fill="#3EAF85"/><path d="M69.965 34.041c0-2.535-4.746-4.59-10.6-4.59-5.854 0-10.6 2.055-10.6 4.59 0 2.535 4.746 4.59 10.6 4.59 5.854 0 10.6-2.055 10.6-4.59z" fill="#3EAF85"/><path d="M56.103 35.22a1.142 1.142 0 0 1-.03-2.285c1.198-.032 2.336-.036 3.292-.036a1.142 1.142 0 1 1 0 2.285c-.94 0-2.06.005-3.23.036h-.032z" fill="#3EAF85"/><path d="M33.702 72.12H31.575a1.142 1.142 0 1 1 0-2.287h1.832c.017 0 .114.002.295.002.552 0 2.057-.01 4.14-.106a1.143 1.143 0 0 1 .104 2.283 95.85 95.85 0 0 1-4.244.108zm10.49-.569a1.143 1.143 0 0 1-.114-2.28c2.15-.218 4.23-.497 6.183-.827a1.143 1.143 0 0 1 .382 2.253c-2.003.34-4.134.624-6.334.848-.039.005-.078.007-.116.007zm12.431-2.157a1.143 1.143 0 0 1-.292-2.247c2.155-.572 4.111-1.233 5.817-1.964a1.142 1.142 0 1 1 .9 2.1c-1.806.775-3.869 1.472-6.13 2.073a1.133 1.133 0 0 1-.294.038zm11.41-5.173a1.141 1.141 0 0 1-.718-2.032c1.65-1.33 2.786-2.83 3.378-4.453a1.144 1.144 0 0 1 2.148.783c-.737 2.02-2.113 3.853-4.09 5.449a1.14 1.14 0 0 1-.718.253zm3.586-11.003c-.384 0-.757-.192-.974-.542-.724-1.17-2.217-2.059-4.565-2.716a1.144 1.144 0 0 1 .617-2.201c2.925.819 4.853 2.035 5.892 3.715a1.143 1.143 0 0 1-.97 1.744zm-11.438-4.33c-.045 0-.092-.003-.139-.009-.909-.11-1.851-.214-2.763-.313-1.16-.128-2.36-.26-3.52-.41a1.142 1.142 0 1 1 .293-2.266c1.137.146 2.327.277 3.477.403.918.101 1.867.205 2.789.317a1.143 1.143 0 0 1-.137 2.278zm-12.46-1.944a1.15 1.15 0 0 1-.344-.053c-2.892-.913-4.742-2.26-5.655-4.121a1.143 1.143 0 0 1 2.052-1.008c.623 1.27 2.027 2.235 4.29 2.95a1.142 1.142 0 0 1-.343 2.232zm-3.788-9.151a1.141 1.141 0 0 1-.687-2.057c1.427-1.071 3.521-1.815 6.402-2.275a1.144 1.144 0 0 1 .36 2.258c-2.47.394-4.283 1.014-5.39 1.844-.205.155-.446.23-.685.23z" fill="#3EAF85"/><path d="M25.22 72.12h-3.264a1.143 1.143 0 1 1 0-2.287h3.264a1.143 1.143 0 1 1 0 2.286z" fill="#3EAF85"/><path d="M39.772 37.48c-3.542-19.806-32.091-19.806-35.633 0a30.812 30.812 0 0 0-.48 5.433c0 12.533 7.521 23.309 18.297 28.063 10.774-4.754 18.296-15.53 18.296-28.063 0-1.854-.165-3.67-.48-5.432z" fill="#FF616D"/><path d="M21.956 70.976C11.18 66.221 3.659 55.446 3.659 42.913c0-1.854.164-3.67.48-5.432 1.75-9.784 9.599-14.734 17.522-14.851-6.16.153-14.257 5.1-15.618 14.85a39.523 39.523 0 0 0-.374 5.433c0 12.534 7.88 23.308 16.287 28.063z" fill="#E53467"/><path d="M34.496 40.801c0 6.927-5.615 12.541-12.54 12.541-6.927 0-12.541-5.614-12.541-12.54 0-6.926 5.614-12.54 12.54-12.54 6.926 0 12.54 5.614 12.54 12.54z" fill="#E53467"/><path d="M31.807 40.801c0 5.06-3.814 9.23-8.724 9.788-.37.043-.746.065-1.127.065-5.441 0-9.853-4.412-9.853-9.853 0-5.44 4.412-9.851 9.853-9.851.381 0 .757.022 1.127.064 4.91.559 8.724 4.728 8.724 9.787z" fill="#E5E5E5"/><path d="M31.807 40.801c0 5.06-3.814 9.23-8.724 9.788-4.91-.558-8.725-4.728-8.725-9.788 0-5.06 3.815-9.228 8.725-9.787 4.91.559 8.724 4.728 8.724 9.787z" fill="#FCFCFC"/><path d="M71.77 10.718c-2.465-13.792-22.344-13.792-24.81 0a21.453 21.453 0 0 0-.335 3.782c0 8.727 5.238 16.23 12.74 19.541 7.503-3.31 12.74-10.813 12.74-19.54 0-1.292-.115-2.556-.334-3.783z" fill="#FCE065"/><path d="M59.365 34.041c-7.502-3.31-12.74-10.813-12.74-19.54 0-1.292.114-2.556.334-3.783C48.177 3.905 53.643.458 59.161.378c-4.29.106-9.928 3.55-10.876 10.34a27.43 27.43 0 0 0-.26 3.782c0 8.727 5.487 16.23 11.34 19.541z" fill="#F9A53F"/><path d="M68.097 13.03a8.732 8.732 0 1 1-8.732-8.732 8.732 8.732 0 0 1 8.732 8.732z" fill="#F9A53F"/><path d="M66.225 13.03a6.86 6.86 0 1 1-13.721 0 6.86 6.86 0 0 1 13.721 0z" fill="#F2F2F2"/><path d="M66.225 13.03a6.86 6.86 0 0 1-6.074 6.816 6.861 6.861 0 0 1 0-13.63 6.86 6.86 0 0 1 6.074 6.814z" fill="#fff"/></g><defs><clipPath id="clip0_596_9439"><path fill="#fff" d="M0 0h80v80H0z"/></clipPath></defs></g></svg>