<svg xmlns="http://www.w3.org/2000/svg" viewBox="0 0 162 80" width="162" height="80"> <g fill="none" class="nc-icon-wrapper"> <g clip-path="url(#1690266975933-825130_clip0_884_6669)"> <path d="M128.684 19.09a.318.318 0 0 0 .279-.145c.749-1.004 1.504-2.003 2.248-3.01.088-.119.172-.144.308-.136 3.044.183 6.089.361 9.133.54.073.005.146.013.235.02l-5.37 12.638c.829-.018 1.625-.033 2.422-.054.043 0 .095-.04.125-.077.068-.08.125-.171.188-.257.785-1.08 1.569-2.16 2.361-3.234a.457.457 0 0 1 .258-.147c.549-.117 1.104-.204 1.649-.334.483-.114.956-.27 1.353-.59.354-.284.361-.71-.015-.968-.23-.157-.495-.269-.754-.379-.185-.079-.387-.12-.602-.184.262-.358.509-.703.767-1.04.036-.047.12-.064.186-.08.647-.16 1.301-.294 1.939-.483.265-.078.516-.24.742-.406.314-.232.333-.64.036-.892-.172-.146-.384-.25-.589-.35-.173-.083-.362-.131-.557-.2.023-.037.036-.062.052-.084.652-.898 1.307-1.795 1.957-2.694l.003-.05c1.476-.012 2.951-.026 4.427-.047 1.415-.02 2.785-.241 4.085-.735.593-.225 1.166-.48 1.631-.88.379-.326.391-.662.005-.98a4.232 4.232 0 0 0-.718-.497c-1.454-.76-3.058-1.106-4.755-1.152-1.55-.042-3.102-.055-4.653-.082a.508.508 0 0 1-.169-.152c-.392-.518-.802-1.021-1.205-1.531l-.867-1.1c.125-.045.229-.08.331-.12.309-.123.614-.251.843-.505.203-.226.226-.5.021-.72a1.699 1.699 0 0 0-.51-.368c-.648-.306-1.35-.432-2.055-.504-.332-.034-.565-.155-.73-.433-.036-.06-.087-.112-.13-.168l-.415-.534c.171-.055.325-.086.462-.151.291-.138.596-.264.856-.45.389-.28.375-.727-.027-.982-.27-.17-.57-.33-.878-.4-.706-.163-1.425-.272-2.141-.392a.41.41 0 0 1-.28-.154c-.872-1.11-1.75-2.215-2.62-3.325-.098-.126-.187-.157-.403-.114-.641.127-1.298.12-1.946.033-.081-.012-.142 0-.24.01l5.857 12.406-.286.03-3.705.365c-1.8.177-3.6.355-5.401.527-.065.007-.156-.014-.197-.057-.134-.141-.251-.298-.374-.45-.697-.857-1.392-1.714-2.092-2.569-.037-.045-.103-.093-.156-.093-.506.003-1.012.013-1.531.022a.176.176 0 0 0-.163.233c.245.709.999 2.882 1.389 4.022a.53.53 0 0 1 .007.32c-.275.929-.559 1.855-.841 2.781l-.394 1.3a.176.176 0 0 0 .173.226c.489-.014.965-.029 1.441-.034z" fill="currentColor"/> <path d="M44.81 54.05c0-.359-.18-.805-.571-1.404a6.784 6.784 0 0 0-.685-.91l.55-1.237c.269-.605.538-1.221.807-1.85.271-.633.512-1.251.715-1.839.219-.631.325-1.115.325-1.48 0-.728-.272-1.408-.808-2.021-.551-.63-1.143-.949-1.76-.949-.276 0-.752.103-2.005.905a48.813 48.813 0 0 0-2.978 2.098c-1.086.82-2.262 1.737-3.497 2.724a1609.285 1609.285 0 0 0-5.128 4.117 54.304 54.304 0 0 0 2.355-3.286l.07-.106v-.128c0-.541-.233-1.113-.693-1.702-.485-.62-1.003-.933-1.54-.933h-.086l-.08.034c-.239.103-.678.378-1.728 1.587a52.227 52.227 0 0 0-2.469 3.11c-.88 1.188-1.819 2.5-2.791 3.902a86.026 86.026 0 0 0-2.63 4.01 66.15 66.15 0 0 0-1.957 3.377c-.736 1.378-.822 1.902-.822 2.177 0 .577.244 1.07.725 1.466.424.348.785.57 1.106.677l.894.183.145-.098c.28-.187.55-.36.825-.527.34-.21.621-.477.826-.784 1.367-1.897 2.775-3.585 4.184-5.015a40.169 40.169 0 0 1 4.414-3.883 57.854 57.854 0 0 1 4.828-3.263 244.344 244.344 0 0 1 4.592-2.709v.537c0 1.011.28 1.998.83 2.93.592 1.006 1.516 1.516 2.745 1.516.809.001 1.293-.457 1.293-1.225z" fill="currentColor"/> <path d="M102.81 47.742l.101-.101c.296-.296.45-.613.458-.941.05-.44-.026-.837-.225-1.18a2.463 2.463 0 0 0-.768-.809 4.778 4.778 0 0 0-.922-.479 2.786 2.786 0 0 0-.967-.195c-.527-.044-1.261.303-2.319 1.09a72.85 72.85 0 0 0-3.408 2.732 107.218 107.218 0 0 0-4.142 3.704 939.743 939.743 0 0 0-4.228 3.993 343.846 343.846 0 0 0-3.727 3.594c-.618.605-1.16 1.131-1.621 1.573.14-.799.301-1.724.487-2.776.29-1.655.595-3.359.905-5.061a528.047 528.047 0 0 0 1.342-7.686l.006-.07c0-.632-.224-1.23-.664-1.775-.463-.57-.968-.86-1.502-.86-.5 0-.899.204-1.146.577-.618.855-1.166 2.194-1.676 4.095a67.53 67.53 0 0 0-.811 3.383l-.005.005c-.269.247-.572.527-.908.84-.342.32-.662.628-.95.916-.354.355-.51.477-.572.517l-.05.04c-.478.433-1.178.988-2.079 1.648a97.177 97.177 0 0 1-3.105 2.17 339.882 339.882 0 0 1-3.584 2.38 91.557 91.557 0 0 1-3.473 2.17 40.935 40.935 0 0 1-2.854 1.56c-.854.415-1.29.53-1.511.554a1.68 1.68 0 0 1 .083-.344c.192-.576.575-1.362 1.139-2.337a49.452 49.452 0 0 1 2.129-3.325 109.538 109.538 0 0 1 2.706-3.742 83.654 83.654 0 0 1 2.903-3.638 72.402 72.402 0 0 1 2.667-3l.116-.123v-.369c0-.597-.251-1.177-.747-1.725-.507-.56-1.074-.843-1.687-.843-.159 0-.355.06-.678.206-.252.115-.54.252-.852.409-.33.165-.624.33-.877.49-.083.054-.152.098-.21.133-.703-.675-1.386-1.207-2.035-1.583-.755-.439-1.718-.661-2.86-.661-1.178 0-2.46.342-3.811 1.017-1.321.66-2.648 1.56-3.944 2.674a36.495 36.495 0 0 0-3.732 3.732A35.133 35.133 0 0 0 46.01 54.6c-.927 1.47-1.673 2.939-2.218 4.367-.552 1.45-.832 2.776-.832 3.94 0 .467.117.937.346 1.396.217.435.485.837.796 1.195.324.373.703.677 1.127.901.44.233.9.351 1.372.351.571 0 1.298-.26 2.223-.794a33.178 33.178 0 0 0 2.752-1.8 67.574 67.574 0 0 0 2.835-2.16c.379-.305.738-.586 1.076-.843-.085.237-.164.482-.236.733-.233.815-.352 1.497-.352 2.028 0 .85.31 1.701.92 2.53.641.871 1.421 1.313 2.32 1.313.685 0 1.724-.285 3.176-.87 1.401-.566 2.972-1.317 4.67-2.233a95.523 95.523 0 0 0 5.256-3.066 66.985 66.985 0 0 0 4.928-3.375c.19-.143.374-.285.555-.427-.066.477-.13.949-.188 1.413a154.07 154.07 0 0 0-.505 4.343c-.102 1.159.042 1.942.438 2.394.358.41 1.021.818 2.03 1.25l.079.034h1.585l.119-.103c.679-.588 1.621-1.475 2.802-2.634a901.7 901.7 0 0 1 3.956-3.855 296.016 296.016 0 0 1 4.555-4.32 162.647 162.647 0 0 1 4.55-4.081c1.436-1.238 2.757-2.29 3.928-3.13 1.122-.804 1.995-1.252 2.594-1.333l.142-.021zm-40.06-.466c0 .222-.129.763-.987 1.89-.704.924-1.607 1.95-2.683 3.047a68.474 68.474 0 0 1-3.6 3.4 120.641 120.641 0 0 1-3.743 3.175 48.601 48.601 0 0 1-3.125 2.36c-.481.33-.82.533-1.054.66.102-.536.325-1.163.666-1.874.5-1.046 1.166-2.166 1.978-3.328a38.932 38.932 0 0 1 2.787-3.517 35.372 35.372 0 0 1 3.148-3.148c1.047-.916 2.084-1.667 3.082-2.231.961-.543 1.794-.818 2.477-.818.106 0 .332.017.802.095.2.034.252.093.252.289z" fill="currentColor"/> <path d="M161.318 20.33c-.442-.492-.963-.796-1.546-.904l-.208-.038-.155.144c-1.255 1.166-2.909 2.843-4.918 4.985a225.46 225.46 0 0 0-6.485 7.258 240.77 240.77 0 0 0-6.954 8.5 150.484 150.484 0 0 0-6.324 8.678c-.335.499-.657.992-.971 1.482-.261.158-.619.386-1.122.714a833.68 833.68 0 0 1-3.888 2.514 216.477 216.477 0 0 1-5.289 3.28 91.98 91.98 0 0 1-5.909 3.272 55.055 55.055 0 0 1-5.658 2.496c-1.756.65-3.275.98-4.516.98-1.332 0-1.926-.553-1.926-1.792 0-.105.016-.316.094-.727.065-.349.153-.721.26-1.106.105-.38.226-.766.36-1.146.077-.217.153-.416.23-.594.12.025.247.037.379.037h.67c1.291 0 2.87-.3 4.692-.893a28.505 28.505 0 0 0 5.243-2.315c1.683-.956 3.138-2.076 4.323-3.33 1.234-1.305 1.86-2.655 1.86-4.013 0-1.136-.276-2.23-.822-3.25-.591-1.105-1.653-1.665-3.155-1.665-1.939 0-3.992.57-6.101 1.693a23.788 23.788 0 0 0-5.737 4.302 25.629 25.629 0 0 0-4.296 5.763c-1.147 2.11-1.728 4.163-1.728 6.104 0 1.005.219 1.929.653 2.746.425.805.977 1.5 1.64 2.068a7.973 7.973 0 0 0 2.231 1.347c.831.331 1.639.5 2.404.5 1.129 0 2.59-.316 4.464-.963 1.817-.628 3.804-1.434 5.907-2.397a99.461 99.461 0 0 0 6.366-3.2 145.577 145.577 0 0 0 3.927-2.226c-.684 1.721-1.029 3.22-1.029 4.473 0 1.634.473 2.91 1.406 3.794.926.878 2.219 1.323 3.845 1.323.609 0 1.582-.344 2.975-1.052 1.329-.676 2.861-1.539 4.555-2.564a94.612 94.612 0 0 0 5.255-3.437 120.451 120.451 0 0 0 4.981-3.668c1.522-1.185 2.785-2.255 3.755-3.18 1.088-1.037 1.573-1.741 1.573-2.284 0-.61-.281-1.186-.836-1.715-.531-.504-1.024-.802-1.506-.91l-.186-.042-.154.112a107.15 107.15 0 0 0-3.435 2.627l-4.058 3.22a2864.61 2864.61 0 0 0-4.26 3.388 83.442 83.442 0 0 1-4.038 3.037c-1.251.878-2.399 1.603-3.413 2.154-1.197.65-1.864.787-2.214.787-.443 0-.718-.131-.718-.785 0-.82.423-2.028 1.258-3.591.862-1.613 2.006-3.474 3.398-5.53a146.44 146.44 0 0 1 4.816-6.655c1.81-2.368 3.67-4.747 5.528-7.07a560.063 560.063 0 0 1 5.529-6.803c1.793-2.167 3.418-4.143 4.832-5.87a409.19 409.19 0 0 0 3.424-4.23c1.295-1.626 1.4-1.947 1.4-2.175 0-.595-.228-1.152-.678-1.657zM108.53 54.429l.015-.031c.608-.91 1.355-1.83 2.221-2.739a18.37 18.37 0 0 1 2.885-2.459 17.075 17.075 0 0 1 3.273-1.767c1.107-.447 2.227-.673 3.33-.673.024 0 .045 0 .062.002l-.021.067c-.139.374-.473.86-.993 1.442-.541.606-1.259 1.28-2.133 2.001-.879.724-1.833 1.4-2.836 2.012a19.718 19.718 0 0 1-3.119 1.543c-.936.363-1.837.565-2.684.602z" fill="currentColor"/> <path d="M38.35 23.934c.682-1.008 1.886-2.864 2.118-3.755.007-.274-.046-.592-.163-.958-.2-.617-.519-.926-.957-.926-.16 0-.368.11-.627.329-.26.22-.538.478-.837.777-.3.299-.588.597-.867.896-.279.3-.498.529-.657.687l-3.167 3.467c-.2.319-.44.588-.718.807a4.29 4.29 0 0 0-.777.807c-.558.597-1.434 1.664-2.63 3.197a193.129 193.129 0 0 0-4.123 5.528 907.78 907.78 0 0 0-5.08 7.112 423.263 423.263 0 0 0-5.469 7.919 540.695 540.695 0 0 0-5.26 7.949A261.691 261.691 0 0 0 4.596 65c-1.336 2.212-2.41 4.124-3.228 5.737-.816 1.614-1.264 2.78-1.344 3.497-.08.358.05.696.388 1.016.34.318.668.478.986.478.2 0 .43-.03.688-.09.26-.06.468-.13.627-.21.876-2.112 2.131-4.612 3.765-7.5a220.16 220.16 0 0 1 5.529-9.204 275.973 275.973 0 0 1 6.604-9.95 367.016 367.016 0 0 1 6.992-9.742 260.211 260.211 0 0 1 6.663-8.606c2.131-2.63 4.034-4.781 5.708-6.455l.376-.038z" fill="currentColor"/> <path d="M7.435 25.718l.328-.064c.115-.02.233-.052.37-.088l.482-.126 3.564-.885a279.172 279.172 0 0 1 12.938-2.798c2.69-.52 5.609-1.053 8.706-1.556.775-.127 1.558-.266 2.354-.387l2.415-.372 2.469-.38 2.52-.354c3.389-.491 6.9-.92 10.47-1.353l5.396-.593c1.81-.192 3.63-.348 5.447-.525.91-.082 1.818-.178 2.728-.25l2.725-.213c1.814-.136 3.622-.293 5.413-.411 3.572-.246 7.089-.485 10.5-.701l5.022-.314 4.81-.285c3.126-.185 6.085-.328 8.818-.456a605.44 605.44 0 0 1 7.468-.304c2.225-.08 4.171-.126 5.778-.155 1.61-.026 2.877-.033 3.761-.02.88.008 1.376.031 1.429.037a2.35 2.35 0 1 1-.335 4.687c.054.003-.358-.025-1.183-.046-.822-.024-2.056-.036-3.629-.034-1.576.004-3.495.02-5.701.066-2.206.04-4.698.105-7.418.189-2.719.083-5.667.192-8.786.307l-4.8.188-5.011.213c-3.4.148-6.92.317-10.498.491-1.784.082-3.575.202-5.377.301l-2.707.157c-.903.054-1.806.13-2.71.195-1.805.139-3.614.258-5.412.412l-5.364.482c-3.549.358-7.042.715-10.414 1.135l-2.508.302a8137.799 8137.799 0 0 0-4.86.649c-.793.104-1.572.227-2.343.338-1.54.229-3.041.437-4.487.676-1.447.232-2.85.43-4.188.663-1.34.228-2.627.432-3.846.652l-3.465.614-3.043.56-2.58.495-3.652.711-.62.114c-.18.033-.33.06-.434.071l-.33.045a1.04 1.04 0 0 1-.344-2.052l.134-.027z" fill="currentColor"/> <path d="M17.273 73.734h.854l1.708 2.874h.072l1.708-2.874h.854l-2.225 3.62v2.538h-.746v-2.538l-2.225-3.62z" fill="currentColor"/> <path d="M28.34 76.813c0 .65-.117 1.21-.352 1.684a2.64 2.64 0 0 1-.965 1.094 2.581 2.581 0 0 1-1.401.385c-.525 0-.992-.128-1.401-.385a2.64 2.64 0 0 1-.966-1.094c-.234-.474-.351-1.035-.351-1.684 0-.65.117-1.211.351-1.684a2.64 2.64 0 0 1 .966-1.095 2.581 2.581 0 0 1 1.4-.385c.526 0 .993.129 1.402.385.409.257.73.622.965 1.095s.352 1.034.352 1.684zm-.721 0c0-.534-.09-.984-.268-1.35a1.939 1.939 0 0 0-.719-.833 1.863 1.863 0 0 0-1.01-.283c-.373 0-.71.094-1.014.283-.3.188-.54.466-.718.833-.177.366-.265.816-.265 1.35 0 .533.088.983.265 1.35.178.367.418.644.718.833.303.188.64.282 1.014.282.373 0 .71-.094 1.01-.282.303-.189.542-.466.719-.833.178-.367.268-.817.268-1.35z" fill="currentColor"/> <path d="M33.636 73.734h.745v4.077c0 .421-.099.797-.297 1.128a2.084 2.084 0 0 1-.833.778c-.36.189-.78.283-1.263.283-.483 0-.904-.094-1.263-.283a2.105 2.105 0 0 1-.836-.778 2.166 2.166 0 0 1-.295-1.128v-4.078h.746v4.018c0 .3.066.568.198.803.133.232.321.416.566.55.246.132.54.198.884.198.342 0 .637-.066.884-.198.246-.134.435-.318.565-.55.132-.235.199-.502.199-.803v-4.017z" fill="currentColor"/> <path d="M35.87 79.892v-6.158h2.081c.481 0 .876.082 1.185.246.309.162.537.386.686.67.148.285.222.609.222.972s-.074.684-.222.965c-.149.28-.376.501-.683.662-.307.158-.699.237-1.176.237H36.28v-.673h1.66c.329 0 .594-.049.794-.145a.912.912 0 0 0 .44-.409c.091-.178.137-.39.137-.637s-.046-.462-.138-.647a.943.943 0 0 0-.442-.427c-.202-.102-.47-.153-.803-.153h-1.31v5.497h-.747zm2.9-2.767l1.515 2.767h-.866l-1.492-2.767h.842z" fill="currentColor"/> <path d="M47.036 75.273a.944.944 0 0 0-.439-.71c-.257-.168-.571-.252-.944-.252-.273 0-.511.044-.716.132-.202.088-.36.21-.475.364a.872.872 0 0 0-.168.526c0 .165.039.306.117.424.08.117.182.214.307.292.124.076.254.14.39.19.137.047.262.087.377.117l.625.168c.16.042.339.1.535.174.199.075.388.176.569.304.182.126.332.289.45.487.119.199.178.442.178.73 0 .334-.087.634-.262.903a1.78 1.78 0 0 1-.757.64c-.331.159-.733.238-1.206.238-.441 0-.823-.071-1.146-.213a1.826 1.826 0 0 1-.758-.596 1.7 1.7 0 0 1-.31-.887h.77c.02.233.099.425.235.578.138.15.313.262.523.336.213.072.441.108.686.108.285 0 .54-.046.767-.138.226-.094.406-.224.538-.39a.927.927 0 0 0 .198-.59.723.723 0 0 0-.171-.5 1.259 1.259 0 0 0-.451-.312 4.745 4.745 0 0 0-.604-.21l-.758-.217c-.481-.138-.862-.336-1.143-.592-.28-.257-.42-.593-.42-1.008 0-.344.092-.645.279-.902.188-.258.44-.459.758-.601a2.56 2.56 0 0 1 1.067-.217c.397 0 .75.071 1.059.214.308.14.553.333.733.577.183.245.279.522.289.833h-.722z" fill="currentColor"/> <path d="M49.068 79.892v-6.158h.746v5.496h2.862v.662h-3.608z" fill="currentColor"/> <path d="M58.788 76.813c0 .65-.118 1.21-.352 1.684a2.64 2.64 0 0 1-.965 1.094 2.581 2.581 0 0 1-1.402.385c-.525 0-.992-.128-1.401-.385a2.64 2.64 0 0 1-.965-1.094c-.235-.474-.352-1.035-.352-1.684 0-.65.117-1.211.352-1.684a2.64 2.64 0 0 1 .965-1.095 2.581 2.581 0 0 1 1.401-.385c.525 0 .992.129 1.401.385.41.257.731.622.966 1.095.234.473.352 1.034.352 1.684zm-.722 0c0-.534-.09-.984-.268-1.35a1.938 1.938 0 0 0-.718-.833 1.863 1.863 0 0 0-1.01-.283c-.374 0-.712.094-1.014.283-.3.188-.54.466-.719.833-.176.366-.265.816-.265 1.35 0 .533.089.983.265 1.35.179.367.418.644.719.833.303.188.64.282 1.013.282.373 0 .71-.094 1.01-.282.303-.189.543-.466.72-.833.178-.367.267-.817.267-1.35z" fill="currentColor"/> <path d="M64.251 75.658a2.173 2.173 0 0 0-.261-.544 1.68 1.68 0 0 0-.382-.415 1.607 1.607 0 0 0-.5-.262 1.99 1.99 0 0 0-.613-.09c-.365 0-.697.094-.995.283-.299.188-.536.466-.713.833-.176.366-.264.816-.264 1.35 0 .533.089.983.267 1.35.179.367.42.644.725.833.305.188.647.282 1.028.282.353 0 .664-.075.932-.225a1.6 1.6 0 0 0 .632-.644c.152-.278.228-.606.228-.983l.229.048h-1.852v-.661h2.345v.661c0 .507-.108.948-.325 1.323a2.244 2.244 0 0 1-.89.872 2.68 2.68 0 0 1-1.299.307c-.545 0-1.024-.128-1.437-.385a2.593 2.593 0 0 1-.962-1.094c-.229-.474-.343-1.035-.343-1.684 0-.487.065-.925.195-1.314.133-.391.32-.724.56-.999.24-.274.525-.485.854-.631a2.64 2.64 0 0 1 1.085-.22c.325 0 .628.05.908.148a2.44 2.44 0 0 1 1.311 1.046c.149.245.25.516.307.815h-.77z" fill="currentColor"/> <path d="M66.397 79.892h-.782l2.261-6.158h.77l2.261 6.158h-.782l-1.84-5.184h-.048l-1.84 5.184zm.288-2.406h3.152v.662h-3.152v-.662z" fill="currentColor"/> <path d="M76.75 73.734v6.158h-.722l-3.356-4.835h-.06v4.835h-.745v-6.158h.721l3.368 4.847h.06v-4.847h.734z" fill="currentColor"/> <path d="M80.624 79.892v-6.158h.745v2.742h3.284v-2.742h.746v6.158h-.746v-2.755h-3.284v2.755h-.745z" fill="currentColor"/> <path d="M86.892 79.892v-6.158h3.716v.661h-2.97v2.08h2.778v.662h-2.778v2.093h3.018v.662h-3.764z" fill="currentColor"/> <path d="M91.953 79.892v-6.158h2.08c.481 0 .876.082 1.185.246.309.162.537.386.686.67.148.285.222.609.222.972s-.074.684-.222.965c-.149.28-.376.501-.683.662-.307.158-.699.237-1.176.237h-1.683v-.673h1.66c.328 0 .593-.049.793-.145a.912.912 0 0 0 .44-.409c.091-.178.138-.39.138-.637s-.047-.462-.139-.647a.943.943 0 0 0-.442-.427c-.202-.102-.47-.153-.803-.153H92.7v5.497h-.746zm2.898-2.767l1.516 2.767H95.5l-1.492-2.767h.842z" fill="currentColor"/> <path d="M97.369 79.892v-6.158h3.717v.661h-2.971v2.08h2.778v.662h-2.778v2.093h3.019v.662h-3.765z" fill="currentColor"/> </g> <defs> <clipPath id="1690266975933-825130_clip0_884_6669"> <path fill="currentColor" d="M0 0h162v80H0z"/> </clipPath> </defs> </g> </svg>