<svg xmlns="http://www.w3.org/2000/svg" viewBox="0 0 148 80" width="148" height="80"> <g fill="none" class="nc-icon-wrapper"> <path d="M94.332 10.616c-.523-1.939-3.765-1.289-3.765-1.289l-4.575 1.37L72.862 0l3.62 6.785.347.649c.455.768.815 1.64 1.278 2.395l.524.983.773 1.45-1.044.215c-.216.044-.458.094-.722.15-.314.063-.627.13-.94.2-.312.07-.625.143-.937.215-3.1.752-6.285 1.216-9.391 2-.312.071-.624.143-.936.218-.161.037-.319.076-.478.114-.08.02-.162.038-.24.059-1.148.364-2.278.672-3.432 1.003l-.414.144-4.126 1.443c-3.956 1.571-7.913 3.524-11.873 5.859-6.79 4.01-13.438 9.117-19.219 14.768a92.26 92.26 0 0 0-7.602 8.37c-3.574-3.15-6.928-6.409-9.184-9.857-3.212-4.904-3.57-9.32-1.13-13.897 2.136-4.008 4.699-6.17 7.835-6.612a8.788 8.788 0 0 1 1.229-.084c3.252 0 6.569 1.675 8.89 3.177 3.035 1.965 5.136 4.12 5.154 4.139l2.158 2.239 1.793-2.541c.012-.017 1.276-1.777 3.432-3.645 1.975-1.71 5.114-3.858 8.853-4.37 2.8-.385 5.625.193 8.434 1.718l5.799-2.325c-2.396-1.827-4.872-3.132-7.369-3.878a17.798 17.798 0 0 0-7.568-.601c-6.508.893-11.424 5.202-13.931 7.911a38.837 38.837 0 0 0-3.855-2.885c-2.092-1.365-4.17-2.403-6.18-3.086-2.641-.897-5.178-1.185-7.541-.855-2.307.322-4.445 1.229-6.354 2.696-2.03 1.558-3.819 3.776-5.316 6.589C1.424 24.183.719 27.597 1.1 31c.336 2.985 1.47 5.917 3.466 8.966 2.662 4.066 6.444 7.707 10.406 11.18l.047.04 3.868 3.326c5.08 4.328 10.22 8.763 11.011 12.246.05.211.081.426.097.642.014.206.01.413-.011.619a5.407 5.407 0 0 1-.65 1.813c-.16.278-.34.544-.538.797-.833 1.033-1.86 1.854-2.996 2.53-.255.193-.53.357-.823.486-.289.134-.583.25-.864.381a9.869 9.869 0 0 1-2.699.684 11.86 11.86 0 0 1-1.212.136c-2.505.156-4.537-.525-6.038-2.025-1.115-1.113-1.506-2.91-1.156-5.338.395-2.752 1.742-6.15 3.892-9.825a54.4 54.4 0 0 1 1.146-1.869l-4.026-3.227c-.55.84-1.068 1.676-1.555 2.507-2.519 4.303-4.047 8.236-4.543 11.687-.735 5.124 1.014 8.1 2.61 9.694 2.334 2.331 5.425 3.545 8.982 3.545a17.46 17.46 0 0 0 2.965-.267c.201-.035.393-.072.58-.108a13.318 13.318 0 0 0 2.904-.851c.31-.13.614-.27.914-.42 3.037-1.508 5.913-3.714 7.346-6.88.114-.232.219-.466.312-.702a8.464 8.464 0 0 0 .547-2.172c.192-1.675-.127-3.42-.946-5.187-.666-1.437-1.668-2.914-3.053-4.515-2.42-2.793-5.69-5.579-9.15-8.527 6.562-8.272 15.785-16.308 25.549-22.073 3.846-2.27 8.403-4.573 13.432-6.379l4.986-1.568c.233-.063.464-.124.7-.184l.349-.088a58.016 58.016 0 0 0 1.521-.369l.502-.127c1.94-.495 3.923-.84 5.91-1.199l.541-.099c1.604-.333 3.197-.692 4.813-.953l.388-.078.942 14.99 5.325-17.545 4.835-1.074c3.233-.87 2.605-3.005 2.605-3.005z" fill="currentColor"/> <path d="M61.62 23.469c.538 1.366.535 2.464.312 4.197-.596 4.642-3.902 10.571-9.308 16.696-4.858 5.503-9.763 9.273-11.548 10.089l2.136 4.665c3.14-1.434 8.72-6.212 13.266-11.362 4.3-4.871 9.62-12.196 10.55-19.435.305-2.382.11-4.613-.58-6.632l-4.828 1.782z" fill="currentColor"/> <path d="M78.28 54.05h-9.322V38.42h3.526v12.776h5.796v2.855z" fill="currentColor"/> <path d="M84.257 54.325c-1.863 0-3.327-.521-4.394-1.564-1.066-1.043-1.599-2.457-1.599-4.243 0-1.846.553-3.29 1.66-4.333 1.106-1.043 2.601-1.564 4.486-1.564 1.855 0 3.31.521 4.366 1.564 1.055 1.043 1.582 2.421 1.583 4.136 0 1.853-.544 3.317-1.632 4.393-1.088 1.075-2.578 1.612-4.47 1.611zm.088-9.068c-.816 0-1.449.28-1.9.839-.45.559-.676 1.35-.676 2.375 0 2.144.866 3.216 2.598 3.216 1.652 0 2.478-1.101 2.478-3.303 0-2.086-.834-3.129-2.5-3.129v.002z" fill="currentColor"/> <path d="M102.121 42.89l-4.159 11.16h-3.926l-3.963-11.16h3.69l1.943 6.875c.218.777.345 1.439.382 1.983h.043c.052-.515.186-1.155.404-1.918l1.987-6.943 3.599.002z" fill="currentColor"/> <path d="M112.388 49.452h-7.291c.116 1.62 1.138 2.43 3.066 2.43 1.23 0 2.311-.29 3.242-.872v2.485c-1.034.553-2.376.829-4.028.829-1.805 0-3.206-.5-4.203-1.499-.997-.999-1.495-2.392-1.495-4.18 0-1.853.538-3.322 1.614-4.405 1.075-1.083 2.4-1.624 3.973-1.624 1.63 0 2.891.483 3.782 1.45s1.337 2.279 1.337 3.935l.003 1.45zm-3.198-2.115c0-1.599-.648-2.398-1.943-2.398-.553 0-1.032.229-1.435.687-.404.458-.65 1.028-.737 1.71h4.115z" fill="currentColor"/> <path d="M124.653 41.287h-4.465v12.764h-3.536V41.287h-4.443v-2.866h12.444v2.866z" fill="currentColor"/> <path d="M130.652 45.996c-.415-.225-.899-.338-1.453-.338-.749 0-1.334.275-1.757.823-.422.549-.633 1.295-.633 2.24v5.33h-3.449V42.889h3.449v2.072h.044c.545-1.512 1.528-2.268 2.947-2.268.364 0 .648.044.851.132l.001 3.171z" fill="currentColor"/> <path d="M132.885 41.124c-.582 0-1.059-.173-1.43-.518a1.673 1.673 0 0 1-.556-1.27c0-.516.185-.937.556-1.264.371-.327.848-.49 1.43-.49.589 0 1.068.163 1.436.49.367.327.551.748.55 1.264 0 .523-.183.952-.55 1.286-.368.334-.846.502-1.436.502zm1.704 12.927h-3.449V42.889h3.449v11.162z" fill="currentColor"/> <path d="M139.867 52.754h-.044v6.43h-3.449V42.89h3.449v1.678h.044c.851-1.3 2.048-1.95 3.591-1.95 1.448 0 2.566.495 3.356 1.487.79.992 1.184 2.342 1.183 4.05 0 1.86-.46 3.352-1.38 4.479-.921 1.127-2.145 1.69-3.673 1.691-1.346 0-2.372-.523-3.077-1.57zm-.099-4.578v.894c0 .77.204 1.398.611 1.886.408.486.943.73 1.605.73.786 0 1.396-.304 1.829-.913.434-.609.65-1.468.65-2.578 0-1.963-.764-2.944-2.293-2.943-.705 0-1.282.267-1.729.8-.448.535-.672 1.242-.673 2.124z" fill="currentColor"/> <path d="M69.067 59.683h.496l1.254 2.806 1.218-2.806h.5l-2.177 4.977h-.496l.703-1.612-1.498-3.365z" fill="currentColor"/> <path d="M75.384 59.59a1.81 1.81 0 0 1 1.398.608 1.956 1.956 0 0 1-.028 2.652c-.355.38-.812.571-1.37.571s-1.015-.19-1.372-.571a1.95 1.95 0 0 1-.028-2.648c.37-.408.836-.613 1.4-.613zm0 .458a1.355 1.355 0 0 0-1.006.432 1.443 1.443 0 0 0-.421 1.045c-.001.258.065.512.192.737.12.22.3.403.518.527a1.476 1.476 0 0 0 1.434 0 1.36 1.36 0 0 0 .519-.527c.126-.225.192-.479.191-.737a1.438 1.438 0 0 0-.422-1.045 1.355 1.355 0 0 0-1.007-.432h.002z" fill="currentColor"/> <path d="M78.61 59.683h.47v1.701c0 .416.022.702.067.86a.956.956 0 0 0 .384.53c.2.132.437.2.677.194.237.007.47-.06.667-.19a.967.967 0 0 0 .376-.497c.047-.14.07-.439.07-.895v-1.7h.48v1.783c0 .502-.059.88-.176 1.136a1.344 1.344 0 0 1-.53.598c-.236.143-.532.214-.887.214s-.651-.071-.89-.215a1.33 1.33 0 0 1-.533-.602c-.118-.258-.177-.646-.177-1.164l.001-1.753z" fill="currentColor"/> <path d="M83.183 59.683h.48v.532c.118-.184.272-.344.453-.47a.894.894 0 0 1 .496-.156c.147.005.29.048.416.124l-.245.396a.642.642 0 0 0-.248-.064.68.68 0 0 0-.453.192c-.145.129-.256.328-.332.598-.058.207-.087.627-.087 1.26v1.232h-.48v-3.644z" fill="currentColor"/> <path d="M88.768 58.33h.47v1.353h.744v.405h-.744v3.239h-.47v-3.239h-.64v-.405h.64V58.33z" fill="currentColor"/> <path d="M94.84 59.683v3.644h-.463V62.7a2.01 2.01 0 0 1-.663.537 1.851 1.851 0 0 1-2.126-.38 1.878 1.878 0 0 1-.548-1.365 1.846 1.846 0 0 1 .553-1.347 1.806 1.806 0 0 1 1.331-.559c.283-.004.562.062.814.19.255.14.474.335.639.573v-.669l.462.002zm-1.877.358a1.417 1.417 0 0 0-1.251.733 1.476 1.476 0 0 0 0 1.472c.124.227.308.416.531.547.216.129.463.196.715.196.256 0 .508-.067.73-.195.223-.121.407-.303.531-.524.126-.229.19-.486.186-.747a1.452 1.452 0 0 0-.886-1.377 1.385 1.385 0 0 0-.558-.105h.002z" fill="currentColor"/> <path d="M99.555 59.683h.47v2.904c0 .511-.045.885-.134 1.121-.116.326-.343.6-.641.775-.304.18-.67.27-1.097.27a2.503 2.503 0 0 1-.843-.132 1.69 1.69 0 0 1-.609-.356c-.157-.149-.301-.366-.433-.653h.508c.124.227.31.413.538.537.22.116.491.174.816.174.324 0 .595-.06.81-.179.2-.098.364-.255.472-.448.095-.18.142-.47.141-.874v-.187c-.172.22-.394.396-.648.514a1.928 1.928 0 0 1-1.76-.07 1.775 1.775 0 0 1-.684-.672 1.832 1.832 0 0 1-.241-.928 1.895 1.895 0 0 1 1.886-1.889 1.75 1.75 0 0 1 .764.17c.265.135.498.325.683.557l.002-.634zm-1.385.358a1.485 1.485 0 0 0-.741.193c-.225.125-.411.309-.538.533a1.456 1.456 0 0 0-.194.735c0 .399.134.73.402.99.268.263.616.393 1.043.393.43 0 .777-.13 1.041-.388.264-.26.396-.6.395-1.02a1.48 1.48 0 0 0-.182-.736 1.317 1.317 0 0 0-.513-.511 1.428 1.428 0 0 0-.713-.188z" fill="currentColor"/> <path d="M101.476 58.276h.469v5.049h-.469v-5.049z" fill="currentColor"/> <path d="M103.599 58.182a.368.368 0 0 1 .273.114.379.379 0 0 1 .114.275.386.386 0 1 1-.657-.275.366.366 0 0 1 .27-.114zm-.233 1.501h.469v3.644h-.469v-3.644z" fill="currentColor"/> <path d="M105.328 59.683h.47v.653c.165-.23.378-.42.624-.56.228-.125.484-.189.744-.187.257-.004.51.068.726.208.209.135.372.33.468.56.1.233.151.599.151 1.094v1.876h-.469v-1.739c0-.419-.018-.7-.054-.84a.938.938 0 0 0-.313-.544c-.152-.122-.356-.183-.604-.183a1.16 1.16 0 0 0-.763.282c-.22.178-.376.423-.445.698-.044.18-.067.511-.067.991v1.336h-.468v-3.645z" fill="currentColor"/> <path d="M113.103 62.118l.396.208c-.112.23-.265.439-.45.616a1.793 1.793 0 0 1-.574.357 2.015 2.015 0 0 1-.722.122c-.595 0-1.061-.195-1.398-.585a1.971 1.971 0 0 1-.504-1.321 1.945 1.945 0 0 1 .426-1.236c.359-.46.841-.69 1.447-.69.623 0 1.119.236 1.491.707.264.332.398.748.402 1.246h-3.281c.009.423.145.77.406 1.04a1.307 1.307 0 0 0 .969.407 1.56 1.56 0 0 0 .99-.354c.16-.151.295-.325.402-.517zm0-.981a1.535 1.535 0 0 0-.274-.6 1.297 1.297 0 0 0-.475-.362 1.458 1.458 0 0 0-.621-.137 1.337 1.337 0 0 0-.923.345c-.189.167-.331.418-.427.752l2.72.002z" fill="currentColor"/> <path d="M117.427 58.276h.47v2.06c.166-.23.38-.42.627-.56.227-.125.482-.189.741-.187.258-.004.51.068.726.208.209.135.372.33.468.558.101.233.151.598.151 1.096v1.876h-.469v-1.739c0-.419-.017-.7-.051-.84-.058-.241-.163-.423-.317-.544-.153-.122-.354-.183-.601-.183a1.158 1.158 0 0 0-.764.282 1.317 1.317 0 0 0-.444.698c-.044.179-.067.51-.067.991v1.336h-.47v-5.052z" fill="currentColor"/> <path d="M125.204 62.118l.395.208a2.16 2.16 0 0 1-.449.616 1.783 1.783 0 0 1-.575.357 2.01 2.01 0 0 1-.722.122c-.595 0-1.06-.195-1.395-.585a1.966 1.966 0 0 1-.504-1.321 1.94 1.94 0 0 1 .426-1.236c.36-.46.843-.69 1.447-.69.622 0 1.118.236 1.49.707.265.332.399.748.403 1.246h-3.281c.009.423.144.77.406 1.04a1.3 1.3 0 0 0 .969.407 1.561 1.561 0 0 0 .99-.354c.158-.151.293-.326.4-.517zm0-.981a1.567 1.567 0 0 0-.274-.6 1.305 1.305 0 0 0-.475-.362 1.464 1.464 0 0 0-.622-.137 1.34 1.34 0 0 0-.923.345c-.188.167-.33.418-.427.752l2.721.002z" fill="currentColor"/> <path d="M126.933 59.683h.48v.532c.118-.184.272-.344.452-.47.147-.1.32-.154.497-.156.147.005.29.048.416.124l-.245.396a.647.647 0 0 0-.249-.064.678.678 0 0 0-.452.192c-.145.129-.256.328-.332.598-.059.207-.088.627-.087 1.26v1.232h-.48v-3.644z" fill="currentColor"/> <path d="M132.764 62.118l.396.208c-.112.23-.264.439-.45.616a1.793 1.793 0 0 1-.574.357 2.015 2.015 0 0 1-.722.122c-.595 0-1.061-.195-1.398-.585a1.971 1.971 0 0 1-.503-1.321 1.945 1.945 0 0 1 .426-1.236c.359-.46.841-.69 1.447-.69.622 0 1.118.236 1.49.707.264.332.399.748.403 1.246h-3.281c.009.423.145.77.406 1.04a1.299 1.299 0 0 0 .971.407 1.557 1.557 0 0 0 .991-.354c.158-.151.292-.326.398-.517zm0-.981a1.55 1.55 0 0 0-.274-.6 1.292 1.292 0 0 0-.475-.362 1.458 1.458 0 0 0-.621-.137 1.342 1.342 0 0 0-.924.345c-.187.167-.329.418-.426.752l2.72.002z" fill="currentColor"/> </g> </svg>