<svg xmlns="http://www.w3.org/2000/svg" viewBox="0 0 98 80" width="98" height="80"> <g fill="none" class="nc-icon-wrapper"> <path d="M51.285 23.94c-1.097-4.797-2.608-7.386-4.335-7.161l-3.151-6.185-.422.13c2.436 11.354 3.771 22.772 2.017 34.459.551 0 .926.013 1.3-.002 2.715-.111 5.433-.361 8.143-.292 1.522.039 2.475-.198 3.317-1.632 2.918-4.96 6.01-9.819 9.032-14.718.292-.474.554-.966.9-1.572-4.126-2.528-8.166-4.97-12.163-7.482-.76-.477-1.35-1.222-2.02-1.844.902-.144 1.808-.438 2.703-.409 5.47.181 10.94.402 16.404.712.636.036 1.498.556 1.812 1.105 2.89 5.044 5.694 10.137 8.478 15.24.261.479.212 1.127.308 1.698-.56-.131-1.2-.13-1.665-.413-4.32-2.645-8.61-5.34-13.07-8.12L58.21 44.69c1.822.203 3.422.364 5.017.568.563.072 1.174.133 1.656.396 4.35 2.379 9.078 1.66 13.709 1.728 1.876.027 3.752.004 5.623.004.673 1.307.194 1.673-1.041 1.667-5.246-.025-10.493-.01-15.739-.01H20.69c-.405-1.087-.317-1.678.976-1.666 3.136.03 6.273.016 9.409.003.565-.003 1.246.102 1.676-.163 2.848-1.755 5.943-2.468 9.522-2.232C40.04 37.82 38.41 30.69 32.99 25.386l-.574.227 1.886 5.1-.422.26-2.81-4.39-1.564 6.784c-.954-2.259-.591-5.204.772-7.866l-.355-.344-3.896 4.205c-1.271-2.62.196-4.479 4.84-5.14l-3.92-1.332.057-.48 3.149.514c-.15-1.099-.437-2.495 1.17-3.466l-.652 2.449c.909-1.05 1.502-2.167 2.43-2.682.906-.503 2.154-.39 3.2-.219l-4.316 3.245.323.525c1.323-.412 2.602-1.635 4.08-.313l-2.571.603c3.05.624 5.75 1.644 7.311 4.24l-7.26-1.884c5.279 5.606 7.181 12.505 9.52 19.259 2.357-11.438 1.668-22.796-.91-34.19-1.584 3.104-3.357 6.114-3.488 9.836-1.78-2.693-1.269-6.654 1.087-10.808l-11.303 7.976c.781-3.591 5.703-7.748 11.262-9.942-1.997-1.172-3.883-.952-5.745.416l-.518-1.265-4.864 1.93c.12-2.145 2.835-4.834 5.268-5.182 2.978-.427 5.006 1.404 7.069 3.143l.41-.332c-1.347-2.124-2.693-4.249-3.97-6.261 2.483-.051 3.467 1.082 4.298 5.65C42.996 2.174 44.757.265 48.278.998l-4.279 2.84.27.53c2.42-2.014 5.091-2.424 7.925-1.282 1.85.746 2.605 2.391 3.17 4.163-3.33-1.644-6.62-2.448-10.174-.79 2.907.66 5.713 1.304 6.222 4.777L46.14 8.318l-.27.32c4.814 4.082 6.762 9.143 5.416 15.301zm21.14 4.9l1.248-8.342c.682 2.803 1.09 5.605 1.487 8.408.296 2.086 1.218 3.021 3.69 3.555-1.57-4.367-3.072-8.649-4.69-12.886-.162-.423-1.036-.822-1.569-.808-1.473.037-2.942.29-4.411.473-2.961.368-5.92.746-9.237 1.166 1.812 1.452 3.149 2.582 5.39 1.604 2.53-1.105 5.231-1.819 7.858-2.702l.101.257-7.025 4.905 2.373 1.46 5.262-6.098.221.15-3.088 7.423 2.39 1.434z" fill="currentColor"/> <path d="M32.129 70.615v-1.107h7.733v1.107H36.62v9.204H35.37v-9.204H32.13z" fill="currentColor"/> <path d="M43.038 69.508v10.31h-1.249v-10.31h1.249z" fill="currentColor"/> <path d="M45.541 69.508h1.49l3.505 8.559h.12l3.505-8.56h1.49V79.82h-1.168v-7.834h-.1l-3.223 7.834h-1.128l-3.222-7.834h-.1v7.834H45.54V69.508z" fill="currentColor"/> <path d="M58.154 79.819V69.508h6.223v1.107h-4.974V74.1h4.652v1.108h-4.652v3.504h5.055v1.108h-6.304z" fill="currentColor"/> <path d="M72.266 72.085a1.58 1.58 0 0 0-.735-1.188c-.43-.282-.956-.423-1.58-.423-.457 0-.856.074-1.199.222-.339.148-.604.35-.795.61a1.46 1.46 0 0 0-.282.88c0 .275.065.512.196.71.134.195.306.358.514.489.208.127.426.233.654.317.228.08.438.146.63.196l1.047.282c.268.07.567.168.896.292.332.124.65.294.952.509.305.21.557.483.755.815.198.332.297.74.297 1.223 0 .558-.146 1.061-.438 1.51-.289.45-.712.808-1.269 1.073-.554.265-1.227.398-2.019.398-.738 0-1.378-.12-1.918-.358-.537-.238-.96-.57-1.269-.996a2.844 2.844 0 0 1-.518-1.486h1.288c.034.39.165.712.393.967.232.252.524.44.876.564.356.12.739.181 1.148.181.477 0 .905-.077 1.284-.231.38-.158.68-.376.901-.655a1.55 1.55 0 0 0 .332-.987c0-.342-.095-.62-.287-.835a2.105 2.105 0 0 0-.755-.524 7.926 7.926 0 0 0-1.012-.352l-1.268-.363c-.806-.231-1.444-.562-1.914-.992-.47-.43-.705-.992-.705-1.686 0-.578.157-1.081.469-1.51a3.11 3.11 0 0 1 1.269-1.008 4.283 4.283 0 0 1 1.787-.362c.664 0 1.255.119 1.772.357.517.235.926.557 1.228.967.306.41.467.874.484 1.394h-1.209z" fill="currentColor"/> <path d="M97.361 62.39c-.508-.303-.784.029-1.056.434-.643.958-1.25 1.956-2.007 2.82-.722.825-1.47 2.448-2.56 1.864-1.164-.623-.374-2.204-.013-3.308 1.355-4.143 3.255-8.04 5.494-11.775.792-1.32.438-2.167-1.028-2.494-.63-.14-1.207.013-1.756.285-1.085.538-1.394.013-1.393-.977 0-.825.078-1.659-.018-2.473-.194-1.651-1.509-2.316-3.011-1.589-1.825.883-2.307 3.179-.64 4.287 1.637 1.087 1.254 1.916.354 3.072-.369.475-.632 1.03-.968 1.532-2.136 3.19-3.778 6.723-6.524 9.49-1.053 1.06-2.209 2.019-3.714 2.346-1.424.31-2.121-.518-2.51-1.77-.43-1.38.505-1.476 1.46-1.74 2.119-.59 3.92-1.724 5.22-3.537 1.182-1.647 1.184-3.599.055-4.87-1.169-1.315-3.206-1.529-4.999-.53-1.818 1.013-2.908 2.64-3.75 4.466-1.336 2.898-2.8 5.727-4.54 8.403-.39.6-.761 1.716-1.582 1.365-.814-.348-.305-1.416-.095-2.078.913-2.877 1.927-5.723 2.911-8.577.333-.964.67-1.975-.325-2.709-1.078-.794-2.252-.8-3.371.008-.997.719-1.703 1.709-2.457 2.653l-.402.44c-.206-.277-.064-.486.134-.684.059-.959.396-2-.77-2.596-.992-.508-1.968-.57-2.946.056a6.73 6.73 0 0 0-1.873 1.806c-.97 1.373-1.918 2.761-2.875 4.143-.083.183-.153.374-.262.54-.021.034-.192-.03-.293-.049l.377-.666c.45-1.545 1.278-2.909 2.071-4.288.692-1.203.465-1.776-.878-2.096-1.072-.255-1.933.023-2.569.983-.858 1.294-1.558 2.674-1.961 4.159-.554 2.04-1.83 3.608-3.123 5.17-.428.517-1.009 1.307-1.757.822-.604-.39-.258-1.228-.056-1.836.71-2.136 1.503-4.243 2.188-6.386.493-1.546-.252-2.568-1.868-2.734-1.082-.11-1.924.37-2.635 1.112-.679.708-1.322 1.45-2.125 2.338.255-2.772-1.232-4.155-3.245-3.278-.98.427-1.711 1.217-2.316 2.069-1.115 1.566-2.152 3.187-3.222 4.785.492-1.87 1.258-3.608 2.337-5.18.723-1.053.375-1.556-.69-1.937-1.163-.417-2.013-.064-2.737.875-1.129 1.462-1.748 3.154-2.34 4.874-.693 2.02-2 3.65-3.535 5.08-.82.765-1.383.46-1.49-.653-.11-1.132.218-2.168.646-3.195.746-1.79 1.916-3.326 2.912-4.966.26-.426.586-.802.174-1.33-.968-1.245-3.397-.978-4.127.457-1.419 2.79-2.69 5.666-4.515 8.23-.574.806-1.183 2.258-2.212 1.767-1.19-.566-.657-2.056-.298-3.133.702-2.104 1.874-3.964 3.197-5.734.312-.417.782-.814.332-1.45-.765-1.08-3.205-1.316-3.952-.243-1.83 2.63-2.962 5.519-2.705 8.8.12 1.52.974 2.53 2.375 3.08 1.41.553 2.463-.147 3.373-1.089.627-.649 1.137-1.41 1.733-2.165 1.534 4.357 3.488 4.523 7.335.617.042.321.053.568.108.803.215.913.363 1.898 1.552 2.065 1.256.176 1.33-.922 1.7-1.655 1.508-2.992 3.015-5.982 5.3-8.485.321-.352.664-.914 1.199-.687.669.283.162.878.089 1.3-.13.754-.39 1.485-.596 2.226-.499 1.79-1.012 3.578-1.488 5.375-.145.55-.144 1.216.447 1.446.55.214.972-.293 1.256-.732a64.106 64.106 0 0 0 1.882-3.075c1.199-2.1 2.344-4.234 3.992-6.034.29-.318.63-.758 1.104-.52.588.294.134.785.027 1.153-.63 2.155-1.626 4.207-1.797 6.492-.09 1.208-.01 2.377 1.255 2.951 1.271.577 2.471.375 3.458-.68.586-.628 1.164-1.263 1.907-2.072.041.504.063.758.082 1.012.072.95.39 1.734 1.433 1.956 1.143.243 1.324-.675 1.68-1.411 1.364-2.827 2.88-5.568 4.816-8.05.48-.617.89-1.425 1.892-1.368.266.642.028 1.213-.139 1.789-.654 2.269-1.326 4.533-1.955 6.808-.172.624-.38 1.357.478 1.694.753.295 1.12-.285 1.427-.797.59-.99 1.13-2.01 1.678-3.024 1.1-2.035 2.276-4.02 3.818-5.76.316-.356.71-.93 1.205-.664.537.29.155.888.008 1.327-.524 1.561-1.106 3.103-1.613 4.67-.526 1.623-.979 3.267-.86 5.007.07 1.065.434 1.93 1.518 2.322 1.027.373 1.86-.03 2.506-.776.644-.745 1.164-1.596 1.766-2.38.704-.917 1.069-2.085 2.032-2.908.982 3.989 3.82 5.327 7.404 3.597 2.054-.992 3.522-2.624 4.728-4.489 2.118-3.276 4.175-6.592 6.243-9.9.362-.58.773-.952 1.463-.575.878.48.054.938-.12 1.28-1.577 3.092-2.94 6.265-3.91 9.6-.356 1.218-.607 2.456-.517 3.737.1 1.436.99 2.29 2.2 2.845 1.206.555 2.215.167 3.121-.75 1.401-1.418 2.542-3.03 3.66-4.664.262-.383.533-.78-.023-1.112zm-17.31-7.678c.41-.315.905-.72 1.474-.34.552.369.396.975.335 1.504-.296 2.53-2.748 5.093-5.764 5.861.696-2.8 1.671-5.27 3.955-7.025z" fill="currentColor"/> <path d="M17.424 46.644c1.427-4.783-1.83-9.019-6.985-9.083-5.56.054-8.023 3.06-7.865 8.228.048 1.57.516 3.025 1.167 4.431.904 1.954 2.125 3.721 3.275 5.53.975 1.534 1.92 3.088 2.362 4.875.335 1.355.468 2.72-.295 4-.783 1.312-2.51 1.986-3.702 1.344-1.419-.765-1.288-2.028-.841-3.309.162-.464.39-.905.61-1.347.54-1.084.082-2.3-1.12-2.92-1.21-.625-1.896.125-2.397 1.028-1.885 3.397.68 7.879 4.543 7.99 4.154.12 7.434-4.214 6.514-8.619-.446-2.139-1.524-3.992-2.672-5.81-1.262-1.997-2.651-3.921-3.515-6.144-1.092-2.807-.496-5.595 1.503-7.207 1.295-1.043 2.735-1.172 4.175-.5 1.387.649 1.846 1.964 1.87 3.406.026 1.595-.578 2.984-1.493 4.28-.915 1.294-.49 2.166 1.073 2.357 1.662.204 3.304-.892 3.793-2.53z" fill="currentColor"/> </g> </svg>