<svg xmlns="http://www.w3.org/2000/svg" viewBox="0 0 186 40" width="186" height="40"> <g fill="none" class="nc-icon-wrapper"> <g clip-path="url(#1690267249013-3331029_clip0_884_6666)"> <path d="M77.727 36.595a2.789 2.789 0 0 1-2.375 1.044c-1.339 0-2.2-.857-2.2-1.977s.892-1.843 2.423-1.857H77.7v-.38c0-.95-.59-1.512-1.732-1.512a3.57 3.57 0 0 0-2.053.736l-.406-.7a4.338 4.338 0 0 1 2.642-.893c1.598 0 2.486.852 2.495 2.231v4.276h-.933l.014-.968zm0-1.241v-.777h-2.018c-1.08 0-1.647.335-1.647 1.05 0 .713.58 1.177 1.49 1.177 1.081 0 1.916-.553 2.161-1.45h.014z" fill="currentColor"/> <path d="M81.89 29.257a.629.629 0 1 1-1.255-.071.629.629 0 0 1 1.256.071zm-1.093 8.333v-6.476h.946v6.476h-.946z" fill="currentColor"/> <path d="M85.037 32.551a2.428 2.428 0 0 1 2.325-1.477v.973a2.152 2.152 0 0 0-2.325 2.102v3.44h-.955v-6.475h.955v1.437z" fill="currentColor"/> <path d="M91.995 37.148a2.672 2.672 0 0 1-1.464.491c-.946 0-1.647-.562-1.647-1.843v-3.7h-.932v-.772h.933v-1.71h.946v1.71h2.053v.785H89.83v3.53c0 .786.308 1.08.861 1.08.37-.011.728-.126 1.036-.33l.267.759z" fill="currentColor"/> <path d="M94.405 32.551a2.419 2.419 0 0 1 2.321-1.477v.973a2.153 2.153 0 0 0-2.32 2.102v3.44h-.96v-6.475h.96v1.437z" fill="currentColor"/> <path d="M99.114 29.257a.63.63 0 1 1-1.257-.072.63.63 0 0 1 1.257.072zm-1.093 8.333v-6.476h.946v6.476h-.946z" fill="currentColor"/> <path d="M107.924 34.372c0 1.915-1.254 3.258-3.084 3.258a2.721 2.721 0 0 1-2.521-1.428v3.776h-.955v-8.864h.955v1.401a2.677 2.677 0 0 1 2.495-1.441c1.825 0 3.11 1.357 3.11 3.298zm-.968-.027a2.324 2.324 0 0 0-2.829-2.175 2.318 2.318 0 0 0-1.774 1.849 2.323 2.323 0 0 0 2.291 2.736 2.28 2.28 0 0 0 2.312-2.41z" fill="currentColor"/> <path d="M118.899 33.595v3.995h-.955v-3.736a1.67 1.67 0 0 0-.491-1.34 1.682 1.682 0 0 0-1.343-.48 2.11 2.11 0 0 0-1.999 1.265 2.111 2.111 0 0 0-.175.814v3.477h-.959v-6.476h.959v1.424c.447-.982 1.339-1.451 2.509-1.464 1.548 0 2.454.96 2.454 2.521z" fill="currentColor"/> <path d="M125.059 36.595a2.79 2.79 0 0 1-2.37 1.044c-1.339 0-2.201-.857-2.201-1.977s.893-1.843 2.419-1.857h2.129v-.38c0-.95-.589-1.512-1.736-1.512a3.572 3.572 0 0 0-2.053.736l-.402-.7a4.341 4.341 0 0 1 2.642-.893c1.598 0 2.482.852 2.495 2.231v4.276h-.937l.014-.968zm0-1.241v-.777h-2.018c-1.084 0-1.647.335-1.647 1.05 0 .713.576 1.177 1.487 1.177 1.084 0 1.919-.553 2.169-1.45h.009z" fill="currentColor"/> <path d="M129.312 37.59l-2.589-6.476h1.022l2.103 5.48 2.053-5.48h.968l-2.575 6.476h-.982z" fill="currentColor"/> <path d="M135.078 29.257a.623.623 0 0 1-.412.555.628.628 0 0 1-.794-.839.628.628 0 0 1 1.206.284zm-1.098 8.333v-6.476h.951v6.476h-.951z" fill="currentColor"/> <path d="M142.907 36.916c0 1.892-1.29 3.084-3.258 3.084a4.366 4.366 0 0 1-2.656-.933l.446-.74a3.327 3.327 0 0 0 2.178.825c1.415 0 2.335-.861 2.335-2.232v-.982a2.549 2.549 0 0 1-2.384 1.34c-1.745 0-2.95-1.29-2.95-3.125 0-1.834 1.192-3.088 2.924-3.124a2.59 2.59 0 0 1 2.41 1.339v-1.254h.959l-.004 5.802zm-.96-2.705a2.226 2.226 0 0 0-2.699-2.129 2.228 2.228 0 0 0-1.724 1.767 2.225 2.225 0 0 0 .958 2.275 2.23 2.23 0 0 0 1.234.372 2.165 2.165 0 0 0 2.231-2.285z" fill="currentColor"/> <path d="M149.102 36.595a2.791 2.791 0 0 1-2.375 1.044c-1.339 0-2.2-.857-2.2-1.977s.893-1.843 2.423-1.857h2.125v-.38c0-.95-.589-1.512-1.732-1.512a3.572 3.572 0 0 0-2.053.736l-.406-.7a4.347 4.347 0 0 1 2.642-.893c1.598 0 2.486.852 2.5 2.231v4.276h-.933l.009-.968zm0-1.241v-.777h-2.018c-1.08 0-1.647.335-1.647 1.05 0 .713.581 1.177 1.491 1.177 1.08 0 1.915-.553 2.16-1.45h.014z" fill="currentColor"/> <path d="M155.515 37.148a2.677 2.677 0 0 1-1.459.491c-.946 0-1.647-.562-1.647-1.843v-3.7h-.937v-.772h.937v-1.71h.946v1.71h2.053v.785h-2.053v3.53c0 .786.308 1.08.857 1.08a1.983 1.983 0 0 0 1.035-.33l.268.759z" fill="currentColor"/> <path d="M162.781 34.345a3.279 3.279 0 0 1-2.01 3.055 3.285 3.285 0 1 1-1.27-6.313 3.128 3.128 0 0 1 3.069 1.984 3.1 3.1 0 0 1 .211 1.274zm-5.605 0a2.324 2.324 0 0 0 4.609.357 2.325 2.325 0 0 0-2.284-2.753 2.27 2.27 0 0 0-2.325 2.41v-.014z" fill="currentColor"/> <path d="M165.424 32.551a2.418 2.418 0 0 1 2.325-1.477v.973a2.15 2.15 0 0 0-2.325 2.102v3.44h-.96v-6.475h.96v1.437z" fill="currentColor"/> <path d="M71.188 19.652l-1.785-4.15h-8.056l-1.786 4.15H55L63.301.461h4.147l8.301 19.191h-4.561zM65.386 6.16l-2.42 5.58h4.808l-2.388-5.58z" fill="currentColor"/> <path d="M77.976.443h4.285v19.191h-4.285V.444z" fill="currentColor"/> <path d="M102.573 6.816c0 3.08-1.218 5.069-3.655 5.968l4.865 6.868h-5.276l-4.262-6.128h-2.968v6.128H87V.461h7.28c2.975 0 5.105.503 6.391 1.508 1.285 1.006 1.919 2.622 1.901 4.847zM97.405 9.11c.53-.473.799-1.231.799-2.267 0-1.035-.277-1.745-.826-2.129-.55-.384-1.509-.576-2.883-.576h-3.218v5.69H94.4c1.47-.008 2.471-.248 3.004-.718z" fill="currentColor"/> <path d="M106.969 19.652V.461h4.289V15.85h8.19v3.82l-12.479-.018z" fill="currentColor"/> <path d="M122.581.443h4.285v19.191h-4.285V.444z" fill="currentColor"/> <path d="M145.022.443h4.285v19.191h-4.285l-9.154-12.05v12.05h-4.284V.444h4.017l9.421 12.367V.443z" fill="currentColor"/> <path d="M167.901.443v3.82h-9.565v3.955h8.601v3.655h-8.601v3.986h9.868v3.793h-14.157V.461l13.854-.018z" fill="currentColor"/> <path d="M176.515 4.277a1.65 1.65 0 0 0-.616 1.339 1.512 1.512 0 0 0 .754 1.339c.504.33 1.665.718 3.49 1.169a9.787 9.787 0 0 1 4.245 2.017c1.008.893 1.513 2.204 1.513 3.932a5.196 5.196 0 0 1-1.937 4.191c-1.292 1.072-2.991 1.607-5.097 1.607-3.044 0-5.783-1.126-8.217-3.378l2.553-3.125c2.083 1.812 3.997 2.72 5.744 2.723a3.018 3.018 0 0 0 1.857-.509c.215-.157.389-.365.507-.604.117-.24.174-.504.167-.77a1.611 1.611 0 0 0-.715-1.375 9.355 9.355 0 0 0-2.834-1.031c-2.234-.53-3.871-1.222-4.909-2.076-1.039-.854-1.556-2.193-1.553-4.017a4.96 4.96 0 0 1 1.968-4.217 7.885 7.885 0 0 1 4.909-1.487 11.78 11.78 0 0 1 3.848.661 10.237 10.237 0 0 1 3.352 1.87l-2.17 3.124a8.447 8.447 0 0 0-5.168-1.905 2.59 2.59 0 0 0-1.691.522z" fill="currentColor"/> <path d="M29.68 2.198A4.408 4.408 0 0 0 25.872 0H18.93a4.407 4.407 0 0 0-3.807 2.198L.587 27.37a4.4 4.4 0 0 0 0 4.392l3.49 6.03A4.409 4.409 0 0 0 7.887 40h6.059a4.41 4.41 0 0 0 3.807-2.2l1.857-3.214c.415-.72.633-1.537.634-2.368v-6.6a.639.639 0 0 0-1.02-.514L9.107 32.168a.573.573 0 0 1-.83-.17L7.096 29.98a.813.813 0 0 1 .132-.992l12.116-11.484a3.028 3.028 0 0 0 .905-2.16v-5.1c0-1.022.731-3.415 1.701-3.963a1.021 1.021 0 0 1 .83-.053c1.024.42 1.812 2.955 1.812 4.01v5.093a3.036 3.036 0 0 0 .903 2.16L36.72 28.973a.816.816 0 0 1 .131.993l-1.18 2.018a.572.572 0 0 1-.836.187l-9.227-7.064a.639.639 0 0 0-1.02.514v6.594c.001.832.22 1.649.634 2.37L27.08 37.8a4.407 4.407 0 0 0 3.806 2.2h6.012a4.441 4.441 0 0 0 3.819-2.19l3.514-6.02a4.377 4.377 0 0 0 .012-4.39L29.679 2.197z" fill="currentColor"/> </g> <defs> <clipPath id="1690267249013-3331029_clip0_884_6666"> <path fill="currentColor" d="M0 0h186v40H0z"/> </clipPath> </defs> </g> </svg>