<svg xmlns="http://www.w3.org/2000/svg" viewBox="0 0 118 80" width="118" height="80"> <g fill="none" class="nc-icon-wrapper"> <g clip-path="url(#1690266975930-5721218_clip0_884_6668)"> <path d="M110.379 75.347c-.922-.914-.224-1.966.218-2.875 1.64-3.371 3.114-6.847 5.046-10.044 2.25-3.722 2.492-6.883-1.237-9.72-1.277-.97-1.146-2.016-.215-3.262 1.108-1.483 1.805-3.175 1.743-5.113-.072-2.273-1.269-2.967-3.263-1.836-2.232 1.265-2.979 4.37-1.668 7.211.405.878.848 1.57.25 2.632-3.24 5.741-7.031 11.03-12.034 15.386-.921.802-1.947 1.37-3.147 1.637-.75.167-1.23-.091-1.518-.787-.576-1.393.536-4.416 1.938-5.155 2.576-1.358 4.784-3.178 6.69-5.357.979-1.12 1.85-2.494.668-3.844-1.246-1.423-2.841-1.17-4.31-.113-2.172 1.562-4.279 3.397-5.14 5.871-1.655 4.747-5.374 7.603-8.83 10.749-.658.598-1.407 1.658-2.437.968-.967-.647-.496-1.785-.186-2.65 1.344-3.755 2.778-7.476 4.143-11.222.28-.77 1.038-1.613.133-2.404-.788-.69-1.661-.178-2.495.048-1.91.516-3.095 2.162-4.743 3.14-.772-3.14-1.25-3.114-6.044.25-.292-.844.332-1.528.383-2.308.04-.629.364-1.262-.519-1.584-.856-.312-1.028.32-1.425.843-3.908 5.148-7.99 10.155-12.412 14.874-.477.51-.881 1.371-2.097 1.014 1.17-4.181 3.02-8.058 4.5-12.068.45-1.222 1.429-2.631-.124-3.656-1.416-.935-2.778-.156-3.917.804-1.504 1.266-2.943 2.608-4.791 4.258.535-1.832.955-3.182 1.318-4.547.175-.662.556-1.403-.265-1.94-.76-.497-1.403-.083-1.956.37-1.655 1.354-3.272 2.757-5.389 4.553.71-1.841 1.238-3.136 1.706-4.453.44-1.236-.28-2.123-1.253-2.503-1.192-.465-1 .828-1.263 1.425-.835 1.897-1.577 3.836-2.402 5.738-1.111 2.56-2.346 5.069-3.115 7.767-.306 1.076-.087 1.824 1.074 2.253 1.265.468 1.486-.442 1.88-1.222 1.11-2.208 2.124-4.476 3.393-6.591 1.104-1.842 2.187-3.8 4.551-5.02-.157.611-.181.92-.31 1.178-1.114 2.223-1.878 4.572-2.54 6.957-.333 1.198-.21 2.173 1.228 2.642 1.422.464 1.516-.588 1.968-1.419 1.95-3.584 4.596-6.59 8.05-9.786-.12 1.748-.714 2.594-1.108 3.506-1.483 3.43-3.383 6.73-3.696 10.556-.197 2.407 1.396 3.407 3.51 2.226 1.833-1.024 3.268-2.553 4.628-4.12 1.92-2.211 3.767-4.485 5.688-6.781.446.829-.116 1.363-.203 1.969-.09.628-.3 1.239-.44 1.861-.206.915.065 1.555 1.036 1.82 1.024.279 1.25-.461 1.456-1.149.946-3.16 2.486-5.872 5.703-7.921-.448 2.386-.808 4.335-1.18 6.28-.145.757.088 1.223.888 1.389.8.166 1.42.113 1.622-.856.147-.702.339-1.397.55-2.082.814-2.636 2.884-4.078 5.054-5.46-.348 1.468-.936 2.755-1.501 4.051-1.155 2.647-2.11 5.356-2.129 8.286-.007 1.182-.075 2.55 1.18 3.178 1.344.673 2.658.193 3.779-.715a87.632 87.632 0 0 0 3.089-2.648c1.218-1.085 2.41-2.197 3.706-3.38 1.316 4.495 3.503 5.243 7.283 2.735 1.467-.973 2.838-2.067 4.018-3.385a67.419 67.419 0 0 0 8.015-11.013c.424-.727.669-2.056 1.535-1.924 1.085.166 1.565 1.489 2.103 2.43.456.796-.284 1.495-.625 2.182-2.309 4.638-5.291 8.93-7.191 13.777-.789 2.015-1.063 4.106.76 5.753 1.189 1.075 4.505.564 6.29-.803.761-.582 1.419-1.254 1.81-2.572-1.017.62-1.657 1.123-2.381 1.425-.981.408-2.063 1.306-3.084.296zm-9.718-19.854c.503-.467 1.082-1.103 1.841-.41.669.61.429 1.386.016 1.961-1.621 2.256-3.502 4.234-6.259 5.184.847-2.718 2.408-4.881 4.402-6.735zm11.765-5.9c-1.4-2.304-.273-4.057.736-5.807.189-.329.513-.635.977-.406.414.205.469.616.46 1.01-.046 1.95-.759 3.617-2.173 5.203z" fill="currentColor"/> <path d="M39.152 57.874c-1.205-.694-1.846-.053-2.483.958-1.958 3.108-4.708 5.496-7.33 8.252-.137-.484-.256-.666-.208-.772.962-2.098 1.944-4.187 2.92-6.279.368-.789.953-1.582-.327-2.159-1.133-.51-1.593.163-2.04.996-.567 1.054-1.203 2.072-1.738 3.141-.563 1.124-.807 2.376-2.67 2.003-1.288-.257-2.859.5-4.006.049-1.536-.604.028-1.993-.064-3.066-.173-2.02-.89-3.509-2.773-4.377-1.71-.79-3.51-1.117-5.364-.928-2.538.26-5.06.673-7.597.946-.838.09-1.905.726-2.498-.012-.676-.843.126-1.854.567-2.61 3.924-6.73 9.483-11.505 16.997-13.826 1.096-.339 2.381-.942 3.29.348.855 1.213.46 2.5-.267 3.592-.969 1.456-2.12 2.79-3.152 4.206-.737 1.013-1.844 1.752-2.392 3.255 3.005-.578 5.155-1.852 6.44-3.7 1.601-2.301 1.798-6.375.141-8.393-1.716-2.09-4.088-1.142-6.257-.911-.233.024-.459.133-.685.212-6.685 2.34-12.04 6.46-16.176 12.177-.797 1.102-1.372 2.34-1.466 3.742-.16 2.402 1.068 3.658 3.446 3.35 1.499-.194 2.961-.647 4.452-.914 2.67-.48 5.351-1.053 8.068-.417 1.451.34 2.728.942 2.825 2.762.145 2.726-1.753 5.387-4.37 6.233-5.247 1.697-10.095 4.069-13.34 8.782-1.96 2.85-.788 5.188 2.65 5.45 3.588.274 6.616-1.03 8.99-3.644 2.198-2.417 4.185-5.023 5.734-7.926 1.72-3.224 2.841-3.822 6.399-3.488 1.007.095 1.655.324 1.495 1.574-.118.925-.205 2.026.97 2.435 1.184.411 1.91-.392 2.65-1.171 1.258-1.328 2.256-2.941 4.092-4.026-.112 3.198-1.925 6.726 2.922 8.421-1.488-4.648.873-8.208 2.128-12.014.231-.697 1.307-1.514.027-2.251zm-33.11 19.74c-1.034.696-2.473 1.193-3.481-.054-.916-1.132-.144-2.322.544-3.28 3.083-4.29 7.576-6.294 13.01-7.933-2.735 4.857-5.945 8.49-10.073 11.267z" fill="currentColor"/> <path d="M87.907 42.86c-.697-.054-.702-.522-.795-.873-2.242-8.498-8.134-13.086-16.347-15.007-7.373-1.725-14.612-1.073-21.533 2.049-5.38 2.426-9.347 6.31-11.498 11.907-.187.487-.214 1.123-1.044 1.368-.507-.869-.01-1.635.294-2.365 2.397-5.759 6.619-9.774 12.299-12.104 8.522-3.496 17.255-3.908 25.919-.573 6.191 2.383 10.618 6.678 12.579 13.2.236.786.614 1.592.126 2.398z" fill="currentColor"/> <path d="M63.636 21.355c-.974-3.518-.858-7.09-1.064-10.624-.166-2.852-.086-5.72-.067-8.58.005-.827-.223-2.015.935-2.141 1.191-.13 1.495 1.059 1.686 1.963.88 4.17.653 8.378.193 12.57-.254 2.312-.352 4.679-1.683 6.812zm.2-18.385v10.002c.86-3.338.805-6.672 0-10.002z" fill="currentColor"/> <path d="M56.013 22.765c-1.214-.327-1.213-1.035-1.382-1.618-1.636-5.657-2.966-11.384-3.922-17.196-.159-.963-.433-2.082.82-2.375 1.072-.252 1.406.817 1.757 1.606 2.757 6.203 2.817 12.759 2.727 19.583zM52.046 3.812c.463 3.837 1.091 7.637 2.466 11.267.03-3.95-.544-7.763-2.466-11.267z" fill="currentColor"/> <path d="M78.348 24.808c-.2-1.038.376-1.934.7-2.865 1.654-4.76 3.899-9.23 6.73-13.4.402-.59.833-1.168 1.317-1.692.427-.463.99-1.046 1.635-.679.779.444.533 1.354.21 1.917-3.273 5.689-6.606 11.343-9.922 17.006l-.67-.287z" fill="currentColor"/> <path d="M84.597 29.903c-.165-.079-.44-.12-.538-.274-.328-.513.082-.894.338-1.273 1.83-2.71 3.86-5.264 6.137-7.608 2.048-2.108 4.023-4.321 6.656-5.748.525-.284 1.216-.782 1.752-.261.64.622.18 1.353-.261 1.92-3.84 4.932-8.364 9.153-13.41 12.826-.192.14-.404.252-.674.418zm12.748-13.365c-2.932 1.34-8.474 7.013-9.405 9.578 3.425-2.944 6.569-5.889 9.405-9.578z" fill="currentColor"/> <path d="M39.113 5.253c5.615 5.817 6.624 13.198 9.95 20.002-3.825-1.977-10.637-15.621-9.95-20.002zm1.338 3.456c.89 3.084 2.175 5.994 3.992 8.665-.894-3.082-1.924-6.105-3.992-8.665z" fill="currentColor"/> <path d="M72.3 22.333c-.424-2.888.168-5.654.6-8.423.488-3.138 1.075-6.262 1.673-9.382.147-.767.444-1.521.778-2.233.238-.506.702-.937 1.328-.805.74.157.65.84.602 1.363-.179 1.896-.321 3.804-.65 5.677-.833 4.77-2.238 9.377-4.331 13.803zm1.735-7.341a28.178 28.178 0 0 0 1.906-10.315c-1.134 3.328-1.591 6.783-1.906 10.315z" fill="currentColor"/> <path d="M42.465 29.55c-.897.206-1.255-.43-1.697-.83a152.664 152.664 0 0 1-11.099-11.131c-.677-.752-1.694-1.658-.57-2.603.94-.79 1.77.158 2.39.877 3.53 4.087 7.037 8.192 10.536 12.305.287.337.703.679.44 1.381z" fill="currentColor"/> <path d="M89.136 34.93c-.848.136-1.163.101-1.292-.26-.13-.367.125-.59.39-.776 4.436-3.124 9.02-5.983 14.235-7.653.466-.149 1.159-.382 1.438.346.193.505-.124.974-.517 1.239-4.58 3.094-9.786 4.91-14.254 7.104z" fill="currentColor"/> <path d="M36.952 34.825c-.236.859-.739.66-1.142.422-3.202-1.897-6.406-3.793-9.57-5.753-.667-.415-1.37-1.244-.951-1.978.469-.824 1.408-.293 2.134-.01 3.374 1.313 6.439 3.07 8.642 6.053.32.435.62.886.887 1.266z" fill="currentColor"/> <path d="M90.746 41.03c3.618-2.769 7.776-4.15 12.094-5.134.382-.087.813-.035 1.035.385.256.484.158 1.002-.247 1.289-.773.546-1.577 1.093-2.446 1.45-3.316 1.362-6.873 1.615-10.436 2.01z" fill="currentColor"/> <path d="M48.563 44.895v-7.954h4.8v.854h-3.837v2.688h3.589v.854h-3.589v2.704h3.9v.854h-4.863z" fill="currentColor"/> <path d="M61.407 36.94v7.955h-.932L56.14 38.65h-.077v6.245H55.1v-7.954h.932l4.35 6.26h.077v-6.26h.948z" fill="currentColor"/> <path d="M66.38 36.94h.963v5.687c0 .507-.094.938-.28 1.293a1.9 1.9 0 0 1-.789.808c-.339.184-.739.276-1.2.276a2.72 2.72 0 0 1-1.161-.237 1.914 1.914 0 0 1-.8-.684c-.194-.295-.291-.646-.291-1.052h.947c0 .225.056.422.167.59.114.166.27.295.466.389.197.093.421.14.672.14.277 0 .513-.059.707-.175.194-.117.342-.288.443-.513.103-.228.155-.506.155-.835V36.94z" fill="currentColor"/> <path d="M75.984 40.918c0 .839-.151 1.564-.454 2.175-.303.611-.719 1.082-1.247 1.414-.528.331-1.132.497-1.81.497-.678 0-1.282-.166-1.81-.497-.528-.332-.944-.803-1.246-1.414-.303-.611-.455-1.336-.455-2.175 0-.839.151-1.564.454-2.175.303-.611.719-1.082 1.247-1.414.528-.331 1.132-.497 1.81-.497.678 0 1.282.166 1.81.497.528.332.944.803 1.247 1.414.303.611.454 1.336.454 2.175zm-.932 0c0-.689-.115-1.27-.346-1.744-.228-.474-.537-.832-.928-1.076a2.407 2.407 0 0 0-1.305-.365c-.481 0-.918.122-1.309.365-.388.244-.698.602-.928 1.076-.228.474-.342 1.055-.342 1.744 0 .689.114 1.27.342 1.744.23.474.54.832.928 1.076.391.243.828.365 1.31.365.48 0 .916-.122 1.304-.365.391-.244.7-.602.928-1.076.23-.474.346-1.055.346-1.744z" fill="currentColor"/> <path d="M76.546 36.94h1.103l2.206 3.714h.094l2.206-3.713h1.103l-2.874 4.676v3.278h-.964v-3.278l-2.874-4.676z" fill="currentColor"/> <path d="M57.477 48.295v-.522h3.646v.522h-1.529v4.339h-.589v-4.339h-1.528z" fill="currentColor"/> <path d="M62.031 52.634v-4.861h.589v2.165h2.592v-2.165h.588v4.86h-.588V50.46H62.62v2.174h-.589z" fill="currentColor"/> <path d="M66.979 52.634v-4.861h2.933v.522h-2.345v1.643h2.193v.522h-2.193v1.652h2.383v.522H66.98z" fill="currentColor"/> </g> <defs> <clipPath id="1690266975930-5721218_clip0_884_6668"> <path fill="currentColor" d="M0 0h118v80H0z"/> </clipPath> </defs> </g> </svg>