<svg xmlns="http://www.w3.org/2000/svg" width="200" height="200" viewBox="0 0 200 200" fill="none"><circle cx="100" cy="100" r="99.5" stroke="white"/><circle cx="100" cy="100" r="59.5" stroke="white"/><path d="M22.5576 86.3092C22.5336 86.6069 22.416 86.8455 22.2049 87.0251C21.9852 87.1946 21.7311 87.2678 21.4427 87.2445C21.145 87.2205 20.906 87.1076 20.7257 86.9057C20.5461 86.6946 20.4683 86.4402 20.4924 86.1425C20.5164 85.8448 20.6336 85.6108 20.844 85.4405C21.0551 85.2609 21.3096 85.1831 21.6073 85.2071C21.8957 85.2304 22.1343 85.348 22.3232 85.5599C22.5035 85.7617 22.5817 86.0115 22.5576 86.3092Z" fill="white"/><path d="M24.3316 69.5066L23.0436 68.9581L24.0042 66.7043C24.136 66.3952 24.1911 66.0991 24.1697 65.8161C24.1434 65.5208 24.0479 65.257 23.8832 65.0245C23.7099 64.7884 23.4687 64.6045 23.1595 64.4729C22.8504 64.3412 22.5549 64.2965 22.2731 64.3388C21.9827 64.3774 21.7262 64.4914 21.5035 64.6806C21.2758 64.8575 21.0962 65.1006 20.9644 65.4097L20.0038 67.6635L18.7157 67.1149L19.7093 64.7838C19.9508 64.2172 20.2827 63.76 20.7048 63.4122C21.1306 63.0559 21.6088 62.8386 22.1394 62.7602C22.6736 62.6732 23.2241 62.7504 23.7908 62.9918C24.3576 63.2331 24.7946 63.5765 25.1019 64.0219C25.4129 64.4586 25.5873 64.9539 25.6252 65.5077C25.6668 66.0529 25.5668 66.6089 25.3252 67.1755L24.3316 69.5066ZM27.2984 71.9722L18.282 68.1323L18.9133 66.6513L27.9297 70.4912L27.2984 71.9722Z" fill="white"/><path d="M32.7071 60.718L24.4232 55.4818L25.284 54.1213L33.5678 59.3574L32.7071 60.718ZM33.2984 59.7834L32.0558 58.9979L34.7952 54.6677L36.0378 55.4531L33.2984 59.7834Z" fill="white"/><path d="M38.6953 51.7698L34.0328 42.2553L34.7757 41.4171L44.7683 44.9177L43.6168 46.2169L35.594 43.3011L35.984 42.8611L39.8282 50.4916L38.6953 51.7698ZM38.5989 49.029L37.5508 48.1008L40.9959 44.2138L42.044 45.142L38.5989 49.029Z" fill="white"/><path d="M47.854 36.9847L41.1732 34.8474L42.6158 33.6701L47.8929 35.4169L47.2205 35.9657L46.5638 30.4479L47.9847 29.2883L48.7217 36.2765L47.854 36.9847ZM50.1602 40.1623L47.0428 36.3456L48.2901 35.3277L51.4076 39.1443L50.1602 40.1623Z" fill="white"/><path d="M70.7964 27.7843L70.2997 26.4754L72.931 25.4779C73.3935 25.3025 73.6967 25.0229 73.8406 24.639C73.9844 24.2551 73.9851 23.8755 73.8428 23.5003C73.7467 23.2472 73.6006 23.0331 73.4044 22.8579C73.2082 22.6828 72.9761 22.5711 72.7083 22.5229C72.4404 22.4748 72.1538 22.5086 71.8483 22.6244L69.2171 23.6219L68.7204 22.3129L71.1292 21.3998C71.5219 21.2509 71.798 21.0314 71.9575 20.7414C72.117 20.4514 72.1222 20.11 71.9732 19.7173C71.8242 19.3246 71.5939 19.0726 71.2821 18.9612C70.9703 18.8498 70.618 18.8686 70.2253 19.0175L67.8166 19.9306L67.3199 18.6216L69.7679 17.6936C70.3876 17.4587 70.9455 17.377 71.4418 17.4484C71.9381 17.5198 72.3544 17.6963 72.6909 17.978C73.0274 18.2597 73.2734 18.6056 73.429 19.0157C73.6111 19.4957 73.6364 19.9702 73.5049 20.4393C73.3822 20.905 73.1064 21.3489 72.6776 21.771L72.6166 21.2551C73.282 21.2724 73.8573 21.4336 74.3424 21.7388C74.8275 22.044 75.1794 22.4845 75.3979 23.0605C75.5767 23.5317 75.6227 24.0083 75.5361 24.4903C75.4582 24.969 75.2387 25.4166 74.8775 25.8329C74.5218 26.2373 74.0167 26.5635 73.3622 26.8116L70.7964 27.7843ZM69.7622 28.1764L66.2858 19.0137L67.7912 18.443L71.2676 27.6057L69.7622 28.1764Z" fill="white"/><path d="M81.9025 24.2031L79.9414 14.6014L81.5189 14.2794L83.4799 23.8812L81.9025 24.2031ZM82.9861 23.982L82.692 22.5417L88.0691 21.4444L88.3633 22.8847L82.9861 23.982ZM82.1261 19.7709L81.8431 18.3855L86.7539 17.3834L87.0369 18.7688L82.1261 19.7709ZM81.3192 15.8205L81.0251 14.3802L86.3337 13.2969L86.6278 14.7372L81.3192 15.8205Z" fill="white"/><path d="M99.5979 22.0581L96.5403 17.8097L96.2465 17.8215L92.1528 12.55L94.0553 12.4734L97.1168 16.4694L97.4105 16.4576L101.472 21.9826L99.5979 22.0581ZM92.3798 22.3488L95.8898 16.9672L97.0327 17.8599L94.1843 22.2761L92.3798 22.3488ZM97.5625 17.4462L96.4196 16.5535L99.1052 12.27L100.91 12.1973L97.5625 17.4462Z" fill="white"/><path d="M108.297 18.8067L108.466 17.4169L110.898 17.7121C111.232 17.7526 111.531 17.7231 111.797 17.6238C112.074 17.5163 112.301 17.3511 112.478 17.1282C112.657 16.896 112.766 16.6132 112.807 16.2796C112.847 15.9461 112.808 15.6498 112.689 15.391C112.571 15.1228 112.39 14.9081 112.147 14.7469C111.914 14.5776 111.63 14.4727 111.297 14.4322L108.864 14.137L109.033 12.7472L111.549 13.0525C112.16 13.1267 112.692 13.3182 113.143 13.6268C113.604 13.9366 113.946 14.3353 114.168 14.823C114.4 15.3119 114.479 15.8621 114.405 16.4736C114.331 17.0851 114.122 17.6004 113.78 18.0196C113.447 18.4398 113.02 18.7452 112.498 18.9358C111.986 19.1275 111.424 19.1862 110.813 19.112L108.297 18.8067ZM106.754 22.3424L107.935 12.6139L109.534 12.8079L108.352 22.5364L106.754 22.3424Z" fill="white"/><path d="M119.223 24.4473L121.95 15.0346L123.497 15.4823L120.769 24.8951L119.223 24.4473ZM120.285 24.7549L120.694 23.343L125.966 24.8693L125.557 26.2812L120.285 24.7549ZM121.481 20.6267L121.875 19.2686L126.689 20.6625L126.296 22.0206L121.481 20.6267ZM122.604 16.7541L123.013 15.3421L128.217 16.8489L127.808 18.2609L122.604 16.7541Z" fill="white"/><path d="M133.641 25.099L134.211 23.8975L136.45 24.9594C136.897 25.1714 137.297 25.2215 137.65 25.1099C138.015 24.9938 138.295 24.7292 138.491 24.316C138.668 23.945 138.693 23.5751 138.569 23.2061C138.444 22.8372 138.159 22.5467 137.712 22.3348L135.46 21.2668L136.061 20.0021L138.375 21.1C138.932 21.364 139.367 21.7098 139.681 22.1375C139.998 22.5567 140.179 23.0142 140.222 23.51C140.278 24.0014 140.19 24.4917 139.958 24.9807C139.714 25.495 139.384 25.8859 138.968 26.1533C138.56 26.4247 138.095 26.5659 137.573 26.5767C137.052 26.5875 136.512 26.4609 135.956 26.1969L133.641 25.099ZM130.859 28.3812L135.061 19.5281L136.516 20.2181L132.313 29.0712L130.859 28.3812ZM135.716 30.6851L134.442 25.3704L136.03 25.5191L137.55 31.555L135.716 30.6851Z" fill="white"/><path d="M153.635 43.4208L157.568 33.6105L158.83 34.8225L155.562 42.689L155.117 42.2624L162.87 38.7009L164.112 39.8935L154.443 44.1965L153.635 43.4208Z" fill="white"/><path d="M161.886 52.5603L169.722 46.6747L170.69 47.9616L162.854 53.8473L161.886 52.5603Z" fill="white"/><path d="M167.875 61.5178L169.177 60.8349L170.375 63.1156C170.687 63.7106 171.088 64.164 171.579 64.4758C172.074 64.7958 172.614 64.9606 173.198 64.97C173.796 64.9834 174.396 64.8318 174.999 64.5153C175.594 64.2031 176.052 63.7996 176.372 63.305C176.692 62.8104 176.861 62.2686 176.879 61.6797C176.9 61.099 176.757 60.5153 176.449 59.9286L175.252 57.6479L176.554 56.965L177.771 59.2829C178.1 59.9109 178.295 60.552 178.354 61.2062C178.421 61.8561 178.36 62.4834 178.172 63.0882C177.996 63.6969 177.702 64.2516 177.29 64.7522C176.887 65.2485 176.375 65.6592 175.755 65.9844C175.143 66.3053 174.514 66.4929 173.868 66.5473C173.222 66.6017 172.597 66.5346 171.992 66.3461C171.395 66.1532 170.844 65.8468 170.339 65.4267C169.842 65.0023 169.431 64.4802 169.105 63.8605L167.875 61.5178ZM167.361 60.5386L176.039 55.9858L176.788 57.4112L168.11 61.964L167.361 60.5386Z" fill="white"/><path d="M173.156 72.8372L182.452 69.735L182.962 71.2621L173.666 74.3642L173.156 72.8372ZM173.507 73.8862L174.901 73.4209L176.639 78.6262L175.245 79.0915L173.507 73.8862ZM177.583 72.5257L178.925 72.0781L180.513 76.8319L179.171 77.2795L177.583 72.5257ZM181.408 71.2494L182.803 70.784L184.519 75.923L183.124 76.3883L181.408 71.2494Z" fill="white"/><path d="M176.854 87.5413C176.742 86.8504 176.766 86.1846 176.926 85.5439C177.087 84.9032 177.356 84.3204 177.734 83.7957C178.122 83.2695 178.594 82.8287 179.151 82.4735C179.718 82.126 180.347 81.8961 181.038 81.7839C181.729 81.6717 182.394 81.6913 183.034 81.8427C183.674 82.0034 184.256 82.2682 184.78 82.637C185.314 83.0136 185.753 83.4765 186.098 84.0257C186.453 84.5826 186.687 85.2065 186.799 85.8974C186.911 86.5883 186.887 87.2495 186.724 87.881C186.573 88.5203 186.304 89.103 185.917 89.6292C185.538 90.1539 185.066 90.5901 184.498 90.9376C183.941 91.2928 183.317 91.5265 182.626 91.6388C181.935 91.751 181.265 91.7275 180.615 91.5684C179.976 91.4169 179.394 91.1522 178.869 90.7741C178.346 90.4052 177.906 89.9423 177.551 89.3854C177.197 88.8377 176.965 88.223 176.854 87.5413ZM178.37 87.2668C178.476 87.9208 178.716 88.4681 179.09 88.9084C179.466 89.358 179.934 89.6791 180.495 89.8716C181.067 90.0719 181.693 90.1167 182.375 90.0059C182.882 89.9236 183.329 89.7659 183.717 89.5327C184.115 89.3073 184.442 89.0225 184.698 88.6783C184.963 88.3326 185.146 87.9436 185.246 87.5113C185.347 87.0883 185.358 86.6326 185.279 86.1443C185.174 85.4995 184.934 84.9522 184.558 84.5027C184.193 84.0608 183.73 83.739 183.167 83.5372C182.606 83.3447 181.985 83.3037 181.303 83.4145C180.797 83.4968 180.34 83.6514 179.932 83.8784C179.535 84.113 179.208 84.3979 178.95 84.7328C178.694 85.077 178.512 85.466 178.403 85.8998C178.303 86.332 178.292 86.7877 178.37 87.2668Z" fill="white"/><path d="M176.782 112.904C176.83 112.609 176.967 112.38 177.192 112.218C177.424 112.067 177.683 112.015 177.969 112.061C178.264 112.109 178.493 112.241 178.656 112.456C178.818 112.681 178.875 112.941 178.827 113.236C178.78 113.531 178.644 113.754 178.42 113.907C178.196 114.069 177.936 114.126 177.641 114.078C177.355 114.032 177.127 113.896 176.956 113.669C176.792 113.454 176.734 113.198 176.782 112.904Z" fill="white"/><path d="M173.098 136.488L174.338 137.138L173.199 139.307C173.043 139.605 172.964 139.895 172.962 140.179C172.965 140.476 173.039 140.746 173.184 140.991C173.338 141.241 173.564 141.443 173.861 141.599C174.159 141.756 174.45 141.824 174.734 141.804C175.027 141.789 175.291 141.696 175.529 141.526C175.77 141.368 175.968 141.14 176.125 140.842L177.264 138.673L178.503 139.324L177.325 141.567C177.039 142.112 176.671 142.541 176.223 142.854C175.77 143.175 175.275 143.353 174.74 143.389C174.201 143.432 173.658 143.311 173.113 143.025C172.567 142.739 172.159 142.361 171.889 141.893C171.614 141.432 171.48 140.925 171.487 140.37C171.489 139.823 171.634 139.277 171.92 138.731L173.098 136.488ZM170.339 133.792L179.017 138.344L178.269 139.77L169.591 135.217L170.339 133.792Z" fill="white"/><path d="M164.041 144.573L171.877 150.458L170.909 151.745L163.074 145.859L164.041 144.573ZM163.376 145.457L164.552 146.339L161.473 150.435L160.297 149.552L163.376 145.457Z" fill="white"/><path d="M157.354 153.009L161.236 162.868L160.428 163.644L150.749 159.35L152.001 158.148L159.764 161.7L159.339 162.107L156.122 154.192L157.354 153.009ZM157.229 155.749L158.199 156.758L154.453 160.355L153.483 159.346L157.229 155.749Z" fill="white"/><path d="M147.034 167.01L153.521 169.678L151.988 170.735L146.869 168.57L147.583 168.077L147.794 173.63L146.284 174.671L146.112 167.646L147.034 167.01ZM144.991 163.657L147.791 167.712L146.466 168.627L143.665 164.572L144.991 163.657Z" fill="white"/><path d="M123.426 174.336L123.815 175.68L121.112 176.463C120.637 176.601 120.312 176.855 120.138 177.226C119.964 177.597 119.933 177.975 120.044 178.361C120.12 178.621 120.248 178.846 120.43 179.036C120.611 179.227 120.833 179.357 121.096 179.426C121.36 179.496 121.648 179.485 121.962 179.394L124.665 178.612L125.054 179.957L122.58 180.673C122.177 180.79 121.884 180.986 121.701 181.263C121.519 181.539 121.486 181.879 121.603 182.282C121.72 182.686 121.93 182.955 122.231 183.091C122.533 183.227 122.886 183.237 123.289 183.12L125.764 182.404L126.153 183.749L123.638 184.477C123.002 184.661 122.439 184.698 121.95 184.586C121.461 184.475 121.061 184.266 120.748 183.958C120.435 183.65 120.218 183.286 120.096 182.864C119.953 182.371 119.966 181.896 120.135 181.439C120.295 180.985 120.605 180.565 121.067 180.178L121.086 180.698C120.424 180.627 119.864 180.42 119.405 180.077C118.946 179.733 118.63 179.266 118.459 178.674C118.319 178.19 118.311 177.711 118.436 177.238C118.552 176.767 118.807 176.339 119.201 175.953C119.588 175.578 120.117 175.294 120.79 175.099L123.426 174.336ZM124.488 174.028L127.216 183.441L125.669 183.889L122.941 174.476L124.488 174.028Z" fill="white"/><path d="M112.068 177.012L113.25 186.74L111.652 186.934L110.47 177.206L112.068 177.012ZM110.97 177.145L111.147 178.604L105.699 179.265L105.522 177.806L110.97 177.145ZM111.488 181.411L111.659 182.815L106.683 183.419L106.513 182.015L111.488 181.411ZM111.975 185.414L112.152 186.873L106.773 187.526L106.596 186.067L111.975 185.414Z" fill="white"/><path d="M94.2578 177.726L96.9635 182.206L97.2572 182.218L100.913 187.802L99.0108 187.725L96.281 183.496L95.9872 183.484L92.3833 177.65L94.2578 177.726ZM101.476 178.017L97.544 183.099L96.4767 182.117L99.6714 177.944L101.476 178.017ZM95.9153 182.487L96.9827 183.468L93.9609 187.522L92.1564 187.449L95.9153 182.487Z" fill="white"/><path d="M85.3232 180.268L85.043 181.64L82.6425 181.15C82.3133 181.083 82.0121 181.088 81.7391 181.165C81.455 181.25 81.2155 181.397 81.0206 181.605C80.8239 181.822 80.6919 182.095 80.6247 182.424C80.5574 182.753 80.5727 183.052 80.6705 183.319C80.7664 183.596 80.9293 183.825 81.1592 184.005C81.3781 184.192 81.6521 184.32 81.9813 184.387L84.3819 184.877L84.1017 186.249L81.6189 185.742C81.0153 185.619 80.501 185.385 80.0759 185.041C79.6416 184.695 79.3331 184.27 79.1503 183.766C78.9583 183.26 78.9239 182.706 79.0472 182.102C79.1705 181.499 79.4196 181.002 79.7946 180.611C80.1605 180.219 80.6109 179.949 81.146 179.801C81.672 179.651 82.2368 179.638 82.8403 179.761L85.3232 180.268ZM87.1464 176.868L85.1854 186.47L83.6079 186.148L85.5689 176.546L87.1464 176.868Z" fill="white"/><path d="M74.8882 173.769L71.4118 182.931L69.9063 182.361L73.3827 173.198L74.8882 173.769ZM73.854 173.376L73.3325 174.751L68.2009 172.806L68.7223 171.431L73.854 173.376ZM72.3293 177.395L71.8277 178.717L67.1412 176.94L67.6428 175.618L72.3293 177.395ZM70.899 181.165L70.3776 182.539L65.3114 180.619L65.8328 179.244L70.899 181.165Z" fill="white"/><path d="M60.5701 171.957L59.9049 173.109L57.7587 171.87C57.3303 171.623 56.9358 171.541 56.5753 171.624C56.2021 171.71 55.9011 171.951 55.6724 172.347C55.467 172.703 55.4115 173.07 55.5059 173.447C55.6003 173.825 55.8617 174.138 56.2901 174.385L58.4485 175.63L57.7482 176.843L55.5293 175.562C54.9957 175.254 54.5899 174.874 54.3117 174.423C54.0289 173.98 53.8858 173.509 53.8822 173.011C53.8659 172.517 53.9932 172.035 54.2639 171.567C54.5487 171.074 54.9093 170.711 55.3457 170.478C55.774 170.24 56.2486 170.137 56.7695 170.168C57.2904 170.199 57.8176 170.369 58.3511 170.676L60.5701 171.957ZM63.6077 168.909L58.7062 177.396L57.3117 176.591L62.2133 168.105L63.6077 168.909ZM58.9515 166.222L59.7936 171.622L58.2231 171.346L57.1933 165.208L58.9515 166.222Z" fill="white"/><path d="M42.1135 152.087L37.4047 161.55L36.2439 160.24L40.1345 152.662L40.5431 153.123L32.5296 156.049L31.3874 154.76L41.3707 151.249L42.1135 152.087Z" fill="white"/><path d="M34.6255 142.312L26.3416 147.548L25.4809 146.188L33.7647 140.951L34.6255 142.312Z" fill="white"/><path d="M29.3762 132.904L28.0237 133.48L27.0137 131.11C26.7502 130.492 26.3865 130.008 25.9227 129.657C25.4552 129.299 24.9304 129.091 24.3484 129.034C23.754 128.973 23.1434 129.076 22.5166 129.343C21.8983 129.606 21.4098 129.971 21.0509 130.439C20.6921 130.906 20.4802 131.432 20.4153 132.018C20.3467 132.595 20.4424 133.188 20.7022 133.798L21.7123 136.168L20.3598 136.744L19.3333 134.335C19.0551 133.683 18.9131 133.028 18.907 132.371C18.8924 131.718 19.0034 131.098 19.2399 130.51C19.4641 129.917 19.8017 129.388 20.2524 128.922C20.6946 128.46 21.2377 128.092 21.8817 127.818C22.5172 127.547 23.1591 127.411 23.8074 127.408C24.4558 127.406 25.0739 127.523 25.6618 127.76C26.241 128 26.7655 128.35 27.2353 128.809C27.6964 129.272 28.0642 129.826 28.3387 130.47L29.3762 132.904ZM29.8099 133.921L20.7935 137.761L20.1622 136.28L29.1786 132.44L29.8099 133.921Z" fill="white"/><path d="M25.0233 121.194L15.5078 123.538L15.1223 121.975L24.6378 119.63L25.0233 121.194ZM24.7585 120.12L23.3311 120.471L22.0173 115.143L23.4446 114.791L24.7585 120.12ZM20.5853 121.148L19.2123 121.486L18.0124 116.62L19.3853 116.282L20.5853 121.148ZM16.6703 122.112L15.243 122.464L13.9459 117.204L15.3732 116.852L16.6703 122.112Z" fill="white"/><path d="M22.5218 106.242C22.5781 106.94 22.5005 107.602 22.2888 108.227C22.0772 108.853 21.7619 109.412 21.3428 109.905C20.9145 110.398 20.4085 110.8 19.8248 111.109C19.2311 111.41 18.5854 111.588 17.8876 111.644C17.1899 111.701 16.5285 111.628 15.9036 111.425C15.2778 111.214 14.719 110.903 14.2271 110.493C13.7251 110.075 13.3245 109.578 13.0252 109.003C12.7159 108.419 12.5331 107.778 12.4767 107.081C12.4204 106.383 12.4984 105.726 12.7108 105.11C12.9131 104.485 13.2285 103.925 13.6568 103.432C14.0758 102.939 14.5822 102.543 15.1759 102.242C15.7596 101.933 16.4003 101.75 17.098 101.694C17.7958 101.637 18.4622 101.715 19.0972 101.926C19.7222 102.128 20.281 102.439 20.7737 102.858C21.2656 103.267 21.6662 103.764 21.9755 104.348C22.2841 104.922 22.4662 105.554 22.5218 106.242ZM20.989 106.394C20.9357 105.733 20.7403 105.169 20.4027 104.7C20.0645 104.221 19.6236 103.864 19.0801 103.626C18.5265 103.381 17.9055 103.286 17.2171 103.341C16.7054 103.383 16.247 103.504 15.8419 103.705C15.4267 103.898 15.0777 104.155 14.7947 104.478C14.5024 104.801 14.2891 105.174 14.1547 105.597C14.0196 106.011 13.9719 106.464 14.0117 106.957C14.0643 107.608 14.2597 108.173 14.598 108.651C14.9262 109.121 15.3625 109.479 15.9067 109.725C16.4503 109.963 17.0662 110.053 17.7547 109.998C18.2663 109.956 18.7344 109.839 19.1589 109.646C19.5733 109.444 19.9223 109.186 20.2061 108.873C20.489 108.55 20.7023 108.177 20.846 107.754C20.9804 107.331 21.0281 106.878 20.989 106.394Z" fill="white"/></svg>