<svg xmlns="http://www.w3.org/2000/svg" width="200" height="200" viewBox="0 0 200 200" fill="none"><circle cx="100" cy="100" r="99.5" stroke="black"/><circle cx="100" cy="100" r="59.5" stroke="black"/><path d="M22.5574 86.3096C22.5334 86.6073 22.4158 86.846 22.2046 87.0256C21.9849 87.1951 21.7309 87.2683 21.4425 87.245C21.1448 87.221 20.9058 87.1081 20.7254 86.9062C20.5458 86.6951 20.4681 86.4407 20.4921 86.143C20.5162 85.8453 20.6334 85.6113 20.8438 85.441C21.0549 85.2614 21.3093 85.1836 21.607 85.2076C21.8954 85.2309 22.1341 85.3485 22.323 85.5604C22.5033 85.7622 22.5814 86.0119 22.5574 86.3096Z" fill="black"/><path d="M24.3314 69.5071L23.0433 68.9585L24.004 66.7047C24.1357 66.3956 24.1909 66.0996 24.1695 65.8166C24.1432 65.5213 24.0476 65.2575 23.8829 65.025C23.7096 64.7889 23.4684 64.605 23.1593 64.4733C22.8502 64.3417 22.5547 64.297 22.2729 64.3393C21.9825 64.3779 21.7259 64.4919 21.5032 64.6811C21.2756 64.858 21.0959 65.1011 20.9642 65.4101L20.0035 67.664L18.7155 67.1154L19.7091 64.7843C19.9506 64.2176 20.2824 63.7604 20.7046 63.4127C21.1304 63.0564 21.6086 62.8391 22.1391 62.7607C22.6734 62.6737 23.2238 62.7509 23.7906 62.9923C24.3573 63.2336 24.7944 63.577 25.1017 64.0224C25.4126 64.4591 25.5871 64.9544 25.625 65.5082C25.6665 66.0534 25.5665 66.6094 25.325 67.176L24.3314 69.5071ZM27.2982 71.9727L18.2818 68.1328L18.9131 66.6518L27.9295 70.4917L27.2982 71.9727Z" fill="black"/><path d="M32.7069 60.7185L24.423 55.4823L25.2837 54.1217L33.5676 59.3579L32.7069 60.7185ZM33.2981 59.7839L32.0556 58.9984L34.795 54.6682L36.0376 55.4536L33.2981 59.7839Z" fill="black"/><path d="M38.695 51.7703L34.0326 42.2558L34.7755 41.4176L44.768 44.9182L43.6166 46.2173L35.5937 43.3016L35.9837 42.8616L39.8279 50.492L38.695 51.7703ZM38.5987 49.0295L37.5506 48.1013L40.9956 44.2143L42.0438 45.1424L38.5987 49.0295Z" fill="black"/><path d="M47.8537 36.9852L41.173 34.8479L42.6155 33.6705L47.8927 35.4174L47.2202 35.9662L46.5636 30.4484L47.9844 29.2888L48.7214 36.277L47.8537 36.9852ZM50.16 40.1627L47.0425 36.3461L48.2898 35.3282L51.4073 39.1448L50.16 40.1627Z" fill="black"/><path d="M70.7961 27.7848L70.2995 26.4759L72.9308 25.4784C73.3933 25.303 73.6965 25.0234 73.8403 24.6395C73.9842 24.2556 73.9849 23.876 73.8425 23.5008C73.7465 23.2477 73.6004 23.0336 73.4042 22.8584C73.2079 22.6833 72.9759 22.5716 72.708 22.5234C72.4402 22.4752 72.1536 22.5091 71.8481 22.6248L69.2168 23.6223L68.7202 22.3134L71.1289 21.4003C71.5217 21.2514 71.7978 21.0319 71.9572 20.7419C72.1167 20.4519 72.122 20.1105 71.973 19.7178C71.824 19.3251 71.5936 19.0731 71.2818 18.9617C70.97 18.8503 70.6178 18.8691 70.2251 19.018L67.8163 19.9311L67.3197 18.6221L69.7677 17.6941C70.3873 17.4592 70.9453 17.3775 71.4416 17.4489C71.9378 17.5202 72.3542 17.6968 72.6907 17.9785C73.0271 18.2602 73.2732 18.6061 73.4288 19.0162C73.6109 19.4962 73.6362 19.9707 73.5047 20.4397C73.3819 20.9055 73.1061 21.3494 72.6773 21.7715L72.6163 21.2556C73.2817 21.2729 73.857 21.4341 74.3421 21.7393C74.8273 22.0444 75.1791 22.485 75.3976 23.0609C75.5764 23.5322 75.6225 24.0088 75.5358 24.4908C75.4579 24.9695 75.2384 25.417 74.8773 25.8334C74.5216 26.2378 74.0165 26.564 73.3619 26.8121L70.7961 27.7848ZM69.7619 28.1769L66.2855 19.0142L67.791 18.4435L71.2674 27.6062L69.7619 28.1769Z" fill="black"/><path d="M81.9022 24.2036L79.9412 14.6018L81.5187 14.2799L83.4797 23.8817L81.9022 24.2036ZM82.9859 23.9825L82.6917 22.5422L88.0689 21.4449L88.3631 22.8852L82.9859 23.9825ZM82.1258 19.7714L81.8429 18.386L86.7537 17.3839L87.0366 18.7693L82.1258 19.7714ZM81.319 15.821L81.0248 14.3807L86.3334 13.2974L86.6276 14.7377L81.319 15.821Z" fill="black"/><path d="M99.5977 22.0585L96.54 17.8102L96.2463 17.822L92.1526 12.5505L94.0551 12.4739L97.1165 16.4699L97.4103 16.458L101.472 21.983L99.5977 22.0585ZM92.3795 22.3493L95.8896 16.9677L97.0325 17.8604L94.1841 22.2766L92.3795 22.3493ZM97.5622 17.4467L96.4193 16.554L99.105 12.2704L100.91 12.1978L97.5622 17.4467Z" fill="black"/><path d="M108.297 18.8072L108.466 17.4174L110.898 17.7126C111.231 17.753 111.531 17.7236 111.797 17.6243C112.073 17.5168 112.3 17.3516 112.478 17.1287C112.656 16.8965 112.766 16.6136 112.807 16.2801C112.847 15.9465 112.808 15.6503 112.689 15.3914C112.571 15.1233 112.39 14.9086 112.147 14.7474C111.913 14.5781 111.63 14.4732 111.296 14.4327L108.864 14.1375L109.033 12.7477L111.549 13.053C112.16 13.1272 112.691 13.3187 113.143 13.6273C113.604 13.9371 113.945 14.3358 114.168 14.8235C114.4 15.3124 114.479 15.8626 114.405 16.4741C114.331 17.0856 114.122 17.6009 113.78 18.02C113.447 18.4403 113.019 18.7457 112.498 18.9363C111.986 19.128 111.424 19.1867 110.812 19.1125L108.297 18.8072ZM106.753 22.3429L107.935 12.6144L109.533 12.8084L108.352 22.5369L106.753 22.3429Z" fill="black"/><path d="M119.222 24.4478L121.95 15.035L123.497 15.4828L120.769 24.8956L119.222 24.4478ZM120.285 24.7554L120.694 23.3435L125.965 24.8698L125.556 26.2817L120.285 24.7554ZM121.481 20.6272L121.875 19.2691L126.689 20.663L126.295 22.0211L121.481 20.6272ZM122.603 16.7545L123.012 15.3426L128.217 16.8494L127.808 18.2613L122.603 16.7545Z" fill="black"/><path d="M133.641 25.0994L134.211 23.8979L136.45 24.9599C136.897 25.1719 137.297 25.222 137.649 25.1104C138.014 24.9943 138.295 24.7297 138.491 24.3165C138.667 23.9455 138.693 23.5756 138.569 23.2066C138.444 22.8377 138.158 22.5472 137.711 22.3352L135.46 21.2673L136.06 20.0026L138.375 21.1005C138.932 21.3645 139.367 21.7103 139.68 22.1379C139.998 22.5571 140.178 23.0147 140.222 23.5105C140.278 24.0019 140.19 24.4922 139.958 24.9812C139.714 25.4955 139.383 25.8864 138.967 26.1538C138.559 26.4252 138.095 26.5663 137.573 26.5772C137.051 26.588 136.512 26.4614 135.956 26.1974L133.641 25.0994ZM130.858 28.3817L135.061 19.5286L136.516 20.2186L132.313 29.0717L130.858 28.3817ZM135.716 30.6856L134.442 25.3709L136.029 25.5196L137.55 31.5555L135.716 30.6856Z" fill="black"/><path d="M153.635 43.4213L157.567 33.611L158.83 34.823L155.562 42.6895L155.117 42.2629L162.869 38.7014L164.112 39.894L154.443 44.197L153.635 43.4213Z" fill="black"/><path d="M161.886 52.5608L169.722 46.6751L170.689 47.9621L162.854 53.8477L161.886 52.5608Z" fill="black"/><path d="M167.875 61.5183L169.177 60.8353L170.374 63.1161C170.687 63.711 171.088 64.1644 171.579 64.4763C172.074 64.7963 172.613 64.9611 173.198 64.9705C173.795 64.9839 174.396 64.8323 174.999 64.5157C175.594 64.2036 176.052 63.8001 176.372 63.3055C176.692 62.8108 176.861 62.2691 176.878 61.6802C176.9 61.0995 176.757 60.5158 176.449 59.9291L175.252 57.6484L176.553 56.9655L177.77 59.2834C178.1 59.9114 178.294 60.5525 178.353 61.2067C178.42 61.8566 178.36 62.4839 178.171 63.0887C177.995 63.6974 177.702 64.2521 177.29 64.7527C176.886 65.249 176.375 65.6597 175.755 65.9849C175.143 66.3058 174.514 66.4934 173.868 66.5478C173.222 66.6022 172.596 66.5351 171.991 66.3466C171.395 66.1537 170.844 65.8473 170.339 65.4272C169.842 65.0028 169.431 64.4807 169.105 63.861L167.875 61.5183ZM167.361 60.539L176.039 55.9863L176.788 57.4117L168.109 61.9645L167.361 60.539Z" fill="black"/><path d="M173.156 72.8376L182.452 69.7355L182.962 71.2626L173.666 74.3647L173.156 72.8376ZM173.506 73.8867L174.901 73.4214L176.639 78.6267L175.245 79.092L173.506 73.8867ZM177.583 72.5262L178.925 72.0786L180.512 76.8324L179.171 77.28L177.583 72.5262ZM181.408 71.2498L182.802 70.7845L184.519 75.9235L183.124 76.3888L181.408 71.2498Z" fill="black"/><path d="M176.854 87.5418C176.741 86.8509 176.766 86.1851 176.926 85.5444C177.087 84.9036 177.356 84.3209 177.734 83.7962C178.121 83.27 178.593 82.8292 179.15 82.474C179.718 82.1265 180.347 81.8966 181.038 81.7844C181.729 81.6721 182.394 81.6917 183.033 81.8432C183.674 82.0039 184.256 82.2686 184.779 82.6375C185.313 83.0141 185.753 83.477 186.097 84.0262C186.453 84.5831 186.687 85.207 186.799 85.8979C186.911 86.5888 186.886 87.25 186.724 87.8815C186.573 88.5207 186.304 89.1035 185.916 89.6297C185.538 90.1544 185.065 90.5906 184.498 90.9381C183.941 91.2933 183.317 91.527 182.626 91.6393C181.935 91.7515 181.265 91.728 180.615 91.5689C179.976 91.4174 179.393 91.1526 178.869 90.7746C178.345 90.4057 177.906 89.9428 177.551 89.3859C177.197 88.8382 176.965 88.2235 176.854 87.5418ZM178.369 87.2672C178.476 87.9213 178.716 88.4685 179.09 88.9089C179.466 89.3585 179.934 89.6796 180.495 89.8721C181.066 90.0724 181.693 90.1172 182.375 90.0064C182.882 89.9241 183.329 89.7664 183.716 89.5332C184.115 89.3078 184.442 89.0229 184.698 88.6788C184.963 88.3331 185.146 87.9441 185.246 87.5118C185.347 87.0887 185.358 86.6331 185.279 86.1448C185.174 85.5 184.934 84.9527 184.558 84.5032C184.193 84.0613 183.729 83.7395 183.167 83.5377C182.606 83.3451 181.985 83.3042 181.303 83.415C180.796 83.4973 180.339 83.6519 179.932 83.8789C179.535 84.1135 179.208 84.3983 178.95 84.7333C178.694 85.0775 178.512 85.4665 178.402 85.9003C178.302 86.3325 178.291 86.7882 178.369 87.2672Z" fill="black"/><path d="M176.782 112.904C176.83 112.609 176.966 112.381 177.191 112.219C177.424 112.068 177.683 112.015 177.969 112.061C178.263 112.109 178.493 112.241 178.656 112.457C178.818 112.682 178.875 112.942 178.827 113.236C178.779 113.531 178.644 113.755 178.42 113.908C178.195 114.07 177.935 114.127 177.641 114.079C177.355 114.033 177.127 113.896 176.955 113.67C176.792 113.454 176.734 113.199 176.782 112.904Z" fill="black"/><path d="M173.098 136.488L174.338 137.139L173.199 139.308C173.042 139.605 172.964 139.896 172.962 140.18C172.965 140.476 173.039 140.747 173.184 140.992C173.338 141.241 173.563 141.444 173.861 141.6C174.159 141.756 174.449 141.824 174.734 141.805C175.026 141.79 175.291 141.697 175.528 141.526C175.77 141.368 175.968 141.14 176.124 140.843L177.263 138.674L178.503 139.324L177.325 141.568C177.039 142.113 176.671 142.542 176.222 142.855C175.769 143.175 175.275 143.354 174.74 143.389C174.201 143.433 173.658 143.312 173.113 143.025C172.567 142.739 172.159 142.362 171.889 141.893C171.614 141.433 171.48 140.925 171.487 140.37C171.489 139.823 171.633 139.277 171.92 138.732L173.098 136.488ZM170.339 133.792L179.017 138.345L178.269 139.77L169.591 135.217L170.339 133.792Z" fill="black"/><path d="M164.041 144.573L171.876 150.459L170.909 151.746L163.073 145.86L164.041 144.573ZM163.376 145.457L164.552 146.34L161.472 150.436L160.297 149.553L163.376 145.457Z" fill="black"/><path d="M157.354 153.01L161.235 162.868L160.427 163.644L150.749 159.351L152.001 158.148L159.763 161.7L159.339 162.108L156.122 154.192L157.354 153.01ZM157.229 155.749L158.199 156.759L154.452 160.356L153.482 159.346L157.229 155.749Z" fill="black"/><path d="M147.033 167.011L153.52 169.679L151.988 170.736L146.868 168.57L147.583 168.077L147.793 173.63L146.284 174.672L146.112 167.647L147.033 167.011ZM144.99 163.658L147.791 167.713L146.465 168.627L143.665 164.572L144.99 163.658Z" fill="black"/><path d="M123.425 174.336L123.815 175.681L121.112 176.464C120.637 176.601 120.312 176.855 120.138 177.227C119.964 177.598 119.932 177.976 120.044 178.361C120.119 178.621 120.248 178.847 120.429 179.037C120.611 179.227 120.833 179.357 121.096 179.427C121.359 179.496 121.648 179.486 121.961 179.395L124.664 178.612L125.054 179.957L122.58 180.673C122.176 180.79 121.883 180.987 121.701 181.263C121.519 181.539 121.486 181.879 121.603 182.283C121.72 182.686 121.929 182.956 122.231 183.092C122.533 183.228 122.886 183.238 123.289 183.121L125.763 182.404L126.153 183.749L123.638 184.477C123.002 184.661 122.439 184.698 121.95 184.587C121.461 184.476 121.06 184.266 120.748 183.959C120.435 183.651 120.218 183.286 120.096 182.865C119.953 182.372 119.966 181.897 120.134 181.44C120.294 180.985 120.605 180.565 121.066 180.179L121.086 180.698C120.424 180.627 119.863 180.42 119.404 180.077C118.945 179.734 118.63 179.266 118.459 178.675C118.318 178.191 118.311 177.712 118.436 177.238C118.552 176.768 118.807 176.339 119.2 175.953C119.588 175.579 120.117 175.294 120.79 175.099L123.425 174.336ZM124.488 174.029L127.215 183.441L125.669 183.889L122.941 174.476L124.488 174.029Z" fill="black"/><path d="M112.068 177.012L113.25 186.74L111.651 186.934L110.47 177.206L112.068 177.012ZM110.97 177.145L111.147 178.605L105.699 179.266L105.522 177.807L110.97 177.145ZM111.488 181.412L111.659 182.816L106.683 183.419L106.513 182.016L111.488 181.412ZM111.974 185.414L112.152 186.874L106.773 187.527L106.596 186.067L111.974 185.414Z" fill="black"/><path d="M94.2575 177.726L96.9632 182.207L97.257 182.219L100.913 187.803L99.0106 187.726L96.2807 183.497L95.987 183.485L92.383 177.651L94.2575 177.726ZM101.476 178.017L97.5438 183.099L96.4764 182.117L99.6711 177.945L101.476 178.017ZM95.9151 182.487L96.9824 183.469L93.9607 187.522L92.1561 187.45L95.9151 182.487Z" fill="black"/><path d="M85.3229 180.268L85.0428 181.64L82.6422 181.15C82.313 181.083 82.0119 181.088 81.7388 181.166C81.4548 181.251 81.2153 181.397 81.0204 181.605C80.8237 181.822 80.6917 182.095 80.6244 182.425C80.5572 182.754 80.5725 183.052 80.6702 183.32C80.7661 183.597 80.929 183.825 81.1589 184.005C81.3778 184.193 81.6519 184.32 81.9811 184.387L84.3816 184.877L84.1015 186.249L81.6186 185.742C81.0151 185.619 80.5007 185.386 80.0756 185.042C79.6414 184.696 79.3328 184.271 79.15 183.767C78.958 183.261 78.9237 182.706 79.0469 182.103C79.1702 181.499 79.4193 181.002 79.7943 180.612C80.1602 180.22 80.6107 179.95 81.1458 179.802C81.6718 179.652 82.2365 179.639 82.8401 179.762L85.3229 180.268ZM87.1462 176.868L85.1851 186.47L83.6076 186.148L85.5687 176.546L87.1462 176.868Z" fill="black"/><path d="M74.8879 173.769L71.4115 182.932L69.9061 182.361L73.3825 173.198L74.8879 173.769ZM73.8537 173.377L73.3323 174.751L68.2006 172.806L68.7221 171.432L73.8537 173.377ZM72.3291 177.395L71.8275 178.717L67.1409 176.941L67.6425 175.619L72.3291 177.395ZM70.8988 181.165L70.3773 182.54L65.3111 180.619L65.8326 179.245L70.8988 181.165Z" fill="black"/><path d="M60.5699 171.958L59.9047 173.109L57.7584 171.871C57.33 171.623 56.9356 171.541 56.5751 171.624C56.2019 171.71 55.9009 171.952 55.6721 172.348C55.4667 172.703 55.4112 173.07 55.5056 173.448C55.6 173.826 55.8614 174.138 56.2899 174.385L58.4482 175.631L57.748 176.843L55.529 175.563C54.9955 175.255 54.5896 174.875 54.3115 174.424C54.0287 173.98 53.8855 173.51 53.882 173.012C53.8657 172.518 53.9929 172.036 54.2637 171.567C54.5485 171.074 54.909 170.711 55.3454 170.478C55.7738 170.24 56.2484 170.137 56.7693 170.168C57.2902 170.2 57.8174 170.369 58.3509 170.677L60.5699 171.958ZM63.6075 168.91L58.7059 177.396L57.3115 176.591L62.213 168.105L63.6075 168.91ZM58.9512 166.223L59.7933 171.623L58.2228 171.347L57.193 165.208L58.9512 166.223Z" fill="black"/><path d="M42.1133 152.088L37.4044 161.55L36.2437 160.24L40.1343 152.662L40.5429 153.123L32.5293 156.05L31.3872 154.761L41.3704 151.25L42.1133 152.088Z" fill="black"/><path d="M34.6252 142.312L26.3414 147.549L25.4806 146.188L33.7645 140.952L34.6252 142.312Z" fill="black"/><path d="M29.3759 132.904L28.0235 133.48L27.0134 131.111C26.7499 130.492 26.3863 130.008 25.9225 129.658C25.455 129.299 24.9302 129.091 24.3481 129.035C23.7538 128.974 23.1432 129.076 22.5164 129.343C21.8981 129.607 21.4095 129.972 21.0507 130.439C20.6919 130.907 20.48 131.433 20.4151 132.019C20.3465 132.596 20.4421 133.189 20.702 133.798L21.712 136.168L20.3596 136.744L19.333 134.336C19.0549 133.683 18.9128 133.029 18.9068 132.372C18.8922 131.719 19.0031 131.098 19.2396 130.511C19.4639 129.918 19.8014 129.389 20.2522 128.923C20.6943 128.461 21.2374 128.092 21.8815 127.818C22.5169 127.548 23.1588 127.411 23.8072 127.409C24.4556 127.407 25.0737 127.524 25.6615 127.76C26.2408 128.001 26.7653 128.35 27.235 128.81C27.6962 129.273 28.064 129.826 28.3384 130.47L29.3759 132.904ZM29.8096 133.922L20.7932 137.762L20.1619 136.281L29.1783 132.441L29.8096 133.922Z" fill="black"/><path d="M25.023 121.194L15.5075 123.538L15.1221 121.975L24.6376 119.631L25.023 121.194ZM24.7582 120.12L23.3309 120.472L22.017 115.143L23.4443 114.792L24.7582 120.12ZM20.585 121.148L19.2121 121.487L18.0121 116.62L19.3851 116.282L20.585 121.148ZM16.6701 122.113L15.2428 122.465L13.9456 117.204L15.373 116.852L16.6701 122.113Z" fill="black"/><path d="M22.5216 106.243C22.5779 106.94 22.5003 107.602 22.2886 108.228C22.077 108.853 21.7616 109.413 21.3426 109.905C20.9142 110.399 20.4082 110.8 19.8246 111.109C19.2308 111.41 18.5851 111.589 17.8874 111.645C17.1897 111.701 16.5283 111.628 15.9033 111.426C15.2776 111.214 14.7187 110.903 14.2268 110.494C13.7249 110.075 13.3242 109.578 13.025 109.003C12.7156 108.42 12.5328 107.779 12.4765 107.081C12.4201 106.384 12.4981 105.726 12.7105 105.11C12.9129 104.485 13.2282 103.926 13.6566 103.433C14.0756 102.94 14.582 102.543 15.1757 102.242C15.7594 101.933 16.4001 101.75 17.0978 101.694C17.7955 101.638 18.4619 101.715 19.097 101.926C19.7219 102.128 20.2808 102.439 20.7734 102.858C21.2654 103.268 21.666 103.765 21.9753 104.348C22.2839 104.923 22.466 105.554 22.5216 106.243ZM20.9888 106.394C20.9354 105.734 20.74 105.169 20.4025 104.7C20.0642 104.222 19.6233 103.864 19.0798 103.627C18.5263 103.381 17.9053 103.286 17.2168 103.342C16.7052 103.383 16.2468 103.504 15.8416 103.706C15.4265 103.898 15.0774 104.156 14.7945 104.478C14.5022 104.802 14.2889 105.175 14.1545 105.597C14.0193 106.011 13.9717 106.464 14.0115 106.957C14.0641 107.609 14.2595 108.173 14.5978 108.652C14.926 109.122 15.3622 109.48 15.9065 109.726C16.45 109.963 17.066 110.054 17.7544 109.998C18.2661 109.957 18.7341 109.84 19.1586 109.646C19.573 109.444 19.9221 109.187 20.2058 108.873C20.4888 108.551 20.7021 108.178 20.8458 107.754C20.9802 107.331 21.0279 106.878 20.9888 106.394Z" fill="black"/></svg>